<?xml version="1.0" encoding="UTF-8" standalone="no"?>
<!DOCTYPE svg PUBLIC "-//W3C//DTD SVG 1.1//EN"
 "http://www.w3.org/Graphics/SVG/1.1/DTD/svg11.dtd">
<!-- Generated by graphviz version 2.36.0 (20140111.2315)
 -->
<!-- Title: webthree Pages: 1 -->
<svg width="1019pt" height="946pt"
 viewBox="0.00 0.00 1019.00 946.00" xmlns="http://www.w3.org/2000/svg" xmlns:xlink="http://www.w3.org/1999/xlink">
<g id="graph0" class="graph" transform="scale(1 1) rotate(0) translate(4 942)">
<title>webthree</title>
<polygon fill="white" stroke="none" points="-4,4 -4,-942 1015,-942 1015,4 -4,4"/>
<text text-anchor="middle" x="505.5" y="-6.8" font-family="Times,serif" font-size="14.00">webthree dependencies</text>
<g id="clust1" class="cluster"><title>cluster_webthree_helpers</title>
<polygon fill="LemonChiffon" stroke="black" points="257,-30 257,-176 601,-176 601,-30 257,-30"/>
<text text-anchor="start" x="341.35" y="-160.8" font-family="Times,serif" font-size="14.00">webthree&#45;helpers dependencies</text>
</g>
<g id="clust3" class="cluster"><title>cluster_alethzero</title>
<polygon fill="LightGray" stroke="black" points="349,-782 349,-930 517,-930 517,-782 349,-782"/>
<text text-anchor="start" x="367.898" y="-914.8" font-family="Times,serif" font-size="14.00">alethzero dependencies</text>
</g>
<g id="clust7" class="cluster"><title>cluster_libethereum</title>
<polygon fill="LavenderBlush" stroke="black" points="657,-256 657,-774 949,-774 949,-256 657,-256"/>
<text text-anchor="start" x="730.115" y="-758.8" font-family="Times,serif" font-size="14.00">libethereum dependencies</text>
</g>
<g id="clust8" class="cluster"><title>cluster_libweb3core</title>
<polygon fill="AliceBlue" stroke="black" points="283,-184 283,-474 497,-474 497,-184 283,-184"/>
<text text-anchor="start" x="315.95" y="-458.8" font-family="Times,serif" font-size="14.00">libweb3core dependencies</text>
</g>
<g id="clust9" class="cluster"><title>cluster_mix</title>
<polygon fill="LightGray" stroke="black" points="225,-782 225,-856 341,-856 341,-782 225,-782"/>
<text text-anchor="start" x="232.657" y="-840.8" font-family="Times,serif" font-size="14.00">mix dependencies</text>
</g>
<g id="clust11" class="cluster"><title>cluster_solidity</title>
<polygon fill="WhiteSmoke" stroke="black" points="419,-482 419,-628 649,-628 649,-482 419,-482"/>
<text text-anchor="start" x="473.543" y="-612.8" font-family="Times,serif" font-size="14.00">solidity dependencies</text>
</g>
<g id="clust13" class="cluster"><title>cluster_webthree</title>
<polygon fill="Honeydew" stroke="black" points="8,-554 8,-856 217,-856 217,-554 8,-554"/>
<text text-anchor="middle" x="112.5" y="-840.8" font-family="Times,serif" font-size="14.00">webthree dependencies</text>
</g>
<!-- buildinfo -->
<g id="node1" class="node"><title>buildinfo</title>
<ellipse fill="none" stroke="black" cx="553" cy="-128" rx="40.13" ry="18"/>
<text text-anchor="middle" x="553" y="-125" font-family="Courier,monospace" font-size="10.00">buildinfo</text>
</g>
<!-- base -->
<g id="node2" class="node"><title>base</title>
<ellipse fill="none" stroke="black" cx="390" cy="-128" rx="27" ry="18"/>
<text text-anchor="middle" x="390" y="-125" font-family="Courier,monospace" font-size="10.00">base</text>
</g>
<!-- json_spirit -->
<g id="node3" class="node"><title>json_spirit</title>
<ellipse fill="none" stroke="black" cx="390" cy="-56" rx="47.0244" ry="18"/>
<text text-anchor="middle" x="390" y="-53" font-family="Courier,monospace" font-size="10.00">json_spirit</text>
</g>
<!-- base&#45;&gt;json_spirit -->
<g id="edge2" class="edge"><title>base&#45;&gt;json_spirit</title>
<path fill="none" stroke="black" d="M390,-109.697C390,-101.983 390,-92.7125 390,-84.1124"/>
<polygon fill="black" stroke="black" points="393.5,-84.1043 390,-74.1043 386.5,-84.1044 393.5,-84.1043"/>
</g>
<!-- boost -->
<g id="node44" class="node"><title>boost</title>
<ellipse fill="none" stroke="black" cx="884" cy="-56" rx="27" ry="18"/>
<text text-anchor="middle" x="884" y="-53" font-family="Courier,monospace" font-size="10.00">boost</text>
</g>
<!-- base&#45;&gt;boost -->
<g id="edge3" class="edge"><title>base&#45;&gt;boost</title>
<path fill="none" stroke="black" d="M410.46,-115.808C415.419,-113.529 420.795,-111.403 426,-110 607.325,-61.1338 665.422,-121.915 847,-74 849.307,-73.3913 851.649,-72.6476 853.976,-71.8151"/>
<polygon fill="black" stroke="black" points="855.389,-75.0188 863.335,-68.0111 852.753,-68.534 855.389,-75.0188"/>
</g>
<!-- Jsoncpp -->
<g id="node45" class="node"><title>Jsoncpp</title>
<ellipse fill="none" stroke="black" cx="962" cy="-56" rx="33.2355" ry="18"/>
<text text-anchor="middle" x="962" y="-53" font-family="Courier,monospace" font-size="10.00">Jsoncpp</text>
</g>
<!-- base&#45;&gt;Jsoncpp -->
<g id="edge4" class="edge"><title>base&#45;&gt;Jsoncpp</title>
<path fill="none" stroke="black" d="M410.067,-115.936C415.131,-113.592 420.652,-111.405 426,-110 638.91,-54.0533 705.593,-123.902 920,-74 922.638,-73.3859 925.327,-72.6294 928.005,-71.7799"/>
<polygon fill="black" stroke="black" points="929.296,-75.0355 937.543,-68.3847 926.949,-68.4408 929.296,-75.0355"/>
</g>
<!-- LevelDB -->
<g id="node46" class="node"><title>LevelDB</title>
<ellipse fill="none" stroke="black" cx="714" cy="-56" rx="33.2355" ry="18"/>
<text text-anchor="middle" x="714" y="-53" font-family="Courier,monospace" font-size="10.00">LevelDB</text>
</g>
<!-- base&#45;&gt;LevelDB -->
<g id="edge5" class="edge"><title>base&#45;&gt;LevelDB</title>
<path fill="none" stroke="black" d="M410.525,-116.033C415.481,-113.745 420.839,-111.558 426,-110 531.781,-78.0595 565.358,-102.936 672,-74 674.458,-73.3331 676.966,-72.563 679.472,-71.7264"/>
<polygon fill="black" stroke="black" points="680.82,-74.9603 689.018,-68.2484 678.424,-68.3832 680.82,-74.9603"/>
</g>
<!-- pthreads -->
<g id="node47" class="node"><title>pthreads</title>
<ellipse fill="none" stroke="black" cx="802" cy="-56" rx="36.433" ry="18"/>
<text text-anchor="middle" x="802" y="-53" font-family="Courier,monospace" font-size="10.00">pthreads</text>
</g>
<!-- base&#45;&gt;pthreads -->
<g id="edge6" class="edge"><title>base&#45;&gt;pthreads</title>
<path fill="none" stroke="black" d="M410.485,-115.896C415.442,-113.613 420.811,-111.464 426,-110 567.996,-69.9481 612.393,-107.826 756,-74 759.149,-73.2582 762.377,-72.3621 765.591,-71.3738"/>
<polygon fill="black" stroke="black" points="766.723,-74.6856 775.097,-68.1944 764.503,-68.0471 766.723,-74.6856"/>
</g>
<!-- scrypt -->
<g id="node4" class="node"><title>scrypt</title>
<ellipse fill="none" stroke="black" cx="465" cy="-128" rx="30.0384" ry="18"/>
<text text-anchor="middle" x="465" y="-125" font-family="Courier,monospace" font-size="10.00">scrypt</text>
</g>
<!-- secp256k1 -->
<g id="node5" class="node"><title>secp256k1</title>
<ellipse fill="none" stroke="black" cx="305" cy="-128" rx="40.13" ry="18"/>
<text text-anchor="middle" x="305" y="-125" font-family="Courier,monospace" font-size="10.00">secp256k1</text>
</g>
<!-- gmp -->
<g id="node48" class="node"><title>gmp</title>
<ellipse fill="none" stroke="black" cx="636" cy="-56" rx="27" ry="18"/>
<text text-anchor="middle" x="636" y="-53" font-family="Courier,monospace" font-size="10.00">gmp</text>
</g>
<!-- secp256k1&#45;&gt;gmp -->
<g id="edge7" class="edge"><title>secp256k1&#45;&gt;gmp</title>
<path fill="none" stroke="black" d="M334.527,-115.736C340.883,-113.6 347.612,-111.551 354,-110 463.515,-83.4087 498.096,-109.668 605,-74 605.866,-73.711 606.736,-73.3982 607.607,-73.0654"/>
<polygon fill="black" stroke="black" points="609.139,-76.2139 616.806,-68.9015 606.252,-69.8368 609.139,-76.2139"/>
</g>
<!-- AlethZero -->
<g id="node6" class="node"><title>AlethZero</title>
<polygon fill="none" stroke="black" stroke-width="2" points="509.007,-900 438.993,-900 438.993,-864 509.007,-864 509.007,-900"/>
<text text-anchor="middle" x="474" y="-879" font-family="Courier,monospace" font-size="10.00">AlethZero</text>
</g>
<!-- aleth -->
<g id="node7" class="node"><title>aleth</title>
<ellipse fill="none" stroke="black" cx="389" cy="-808" rx="27" ry="18"/>
<text text-anchor="middle" x="389" y="-805" font-family="Courier,monospace" font-size="10.00">aleth</text>
</g>
<!-- AlethZero&#45;&gt;aleth -->
<g id="edge8" class="edge"><title>AlethZero&#45;&gt;aleth</title>
<path fill="none" stroke="black" d="M453.856,-863.937C441.497,-853.468 425.612,-840.012 412.656,-829.038"/>
<polygon fill="black" stroke="black" points="414.918,-826.367 405.025,-822.574 410.394,-831.709 414.918,-826.367"/>
</g>
<!-- natspec -->
<g id="node11" class="node"><title>natspec</title>
<ellipse fill="none" stroke="black" cx="820" cy="-726" rx="33.2355" ry="18"/>
<text text-anchor="middle" x="820" y="-723" font-family="Courier,monospace" font-size="10.00">natspec</text>
</g>
<!-- aleth&#45;&gt;natspec -->
<g id="edge11" class="edge"><title>aleth&#45;&gt;natspec</title>
<path fill="none" stroke="black" d="M415.999,-807.266C493.355,-807.631 714.329,-805.79 778,-774 788.239,-768.888 797.121,-760.109 804.047,-751.513"/>
<polygon fill="black" stroke="black" points="806.887,-753.558 810.068,-743.452 801.279,-749.369 806.887,-753.558"/>
</g>
<!-- web3jsonrpc -->
<g id="node37" class="node"><title>web3jsonrpc</title>
<ellipse fill="none" stroke="black" cx="162" cy="-726" rx="47.0244" ry="18"/>
<text text-anchor="middle" x="162" y="-723" font-family="Courier,monospace" font-size="10.00">web3jsonrpc</text>
</g>
<!-- aleth&#45;&gt;web3jsonrpc -->
<g id="edge10" class="edge"><title>aleth&#45;&gt;web3jsonrpc</title>
<path fill="none" stroke="black" d="M370.407,-794.565C362.809,-789.991 353.76,-785.161 345,-782 325.892,-775.105 319.671,-779.067 300,-774 267.038,-765.51 230.624,-752.969 203.481,-742.977"/>
<polygon fill="black" stroke="black" points="204.517,-739.628 193.924,-739.423 202.077,-746.189 204.517,-739.628"/>
</g>
<!-- Qt* -->
<g id="node49" class="node"><title>Qt*</title>
<ellipse fill="none" stroke="black" cx="336" cy="-726" rx="27" ry="18"/>
<text text-anchor="middle" x="336" y="-723" font-family="Courier,monospace" font-size="10.00">Qt*</text>
</g>
<!-- aleth&#45;&gt;Qt* -->
<g id="edge9" class="edge"><title>aleth&#45;&gt;Qt*</title>
<path fill="none" stroke="black" d="M378.529,-791.195C370.979,-779.799 360.65,-764.207 352.061,-751.244"/>
<polygon fill="black" stroke="black" points="354.89,-749.176 346.449,-742.773 349.055,-753.042 354.89,-749.176"/>
</g>
<!-- AlethOne -->
<g id="node8" class="node"><title>AlethOne</title>
<polygon fill="none" stroke="black" stroke-width="2" points="421.006,-900 356.994,-900 356.994,-864 421.006,-864 421.006,-900"/>
<text text-anchor="middle" x="389" y="-879" font-family="Courier,monospace" font-size="10.00">AlethOne</text>
</g>
<!-- AlethOne&#45;&gt;aleth -->
<g id="edge12" class="edge"><title>AlethOne&#45;&gt;aleth</title>
<path fill="none" stroke="black" d="M389,-863.937C389,-855.807 389,-845.876 389,-836.705"/>
<polygon fill="black" stroke="black" points="392.5,-836.441 389,-826.441 385.5,-836.441 392.5,-836.441"/>
</g>
<!-- ethereum -->
<g id="node9" class="node"><title>ethereum</title>
<ellipse fill="none" stroke="black" cx="702" cy="-508" rx="36.433" ry="18"/>
<text text-anchor="middle" x="702" y="-505" font-family="Courier,monospace" font-size="10.00">ethereum</text>
</g>
<!-- evm -->
<g id="node19" class="node"><title>evm</title>
<ellipse fill="none" stroke="black" cx="764" cy="-426" rx="27" ry="18"/>
<text text-anchor="middle" x="764" y="-423" font-family="Courier,monospace" font-size="10.00">evm</text>
</g>
<!-- ethereum&#45;&gt;evm -->
<g id="edge14" class="edge"><title>ethereum&#45;&gt;evm</title>
<path fill="none" stroke="black" d="M714.739,-490.921C718.974,-485.552 723.704,-479.529 728,-474 733.892,-466.416 740.279,-458.107 746.014,-450.612"/>
<polygon fill="black" stroke="black" points="749.089,-452.352 752.379,-442.281 743.527,-448.102 749.089,-452.352"/>
</g>
<!-- lll -->
<g id="node22" class="node"><title>lll</title>
<ellipse fill="none" stroke="black" cx="692" cy="-426" rx="27" ry="18"/>
<text text-anchor="middle" x="692" y="-423" font-family="Courier,monospace" font-size="10.00">lll</text>
</g>
<!-- ethereum&#45;&gt;lll -->
<g id="edge15" class="edge"><title>ethereum&#45;&gt;lll</title>
<path fill="none" stroke="black" d="M699.83,-489.641C698.537,-479.297 696.868,-465.941 695.403,-454.221"/>
<polygon fill="black" stroke="black" points="698.845,-453.539 694.131,-444.05 691.899,-454.407 698.845,-453.539"/>
</g>
<!-- p2p -->
<g id="node26" class="node"><title>p2p</title>
<ellipse fill="none" stroke="black" cx="318" cy="-354" rx="27" ry="18"/>
<text text-anchor="middle" x="318" y="-351" font-family="Courier,monospace" font-size="10.00">p2p</text>
</g>
<!-- ethereum&#45;&gt;p2p -->
<g id="edge13" class="edge"><title>ethereum&#45;&gt;p2p</title>
<path fill="none" stroke="black" d="M679.787,-493.496C671.633,-489.132 662.154,-484.722 653,-482 620.868,-472.446 610.337,-482.837 578,-474 472.479,-445.161 453.239,-418.023 354,-372 352.213,-371.171 350.378,-370.316 348.527,-369.451"/>
<polygon fill="black" stroke="black" points="349.837,-366.2 339.297,-365.117 346.861,-372.536 349.837,-366.2"/>
</g>
<!-- ethashseal -->
<g id="node10" class="node"><title>ethashseal</title>
<ellipse fill="none" stroke="black" cx="787" cy="-580" rx="43.3279" ry="18"/>
<text text-anchor="middle" x="787" y="-577" font-family="Courier,monospace" font-size="10.00">ethashseal</text>
</g>
<!-- ethashseal&#45;&gt;ethereum -->
<g id="edge16" class="edge"><title>ethashseal&#45;&gt;ethereum</title>
<path fill="none" stroke="black" d="M768.136,-563.465C756.228,-553.658 740.69,-540.862 727.667,-530.138"/>
<polygon fill="black" stroke="black" points="729.883,-527.428 719.939,-523.773 725.433,-532.832 729.883,-527.428"/>
</g>
<!-- ethash&#45;cl -->
<g id="node18" class="node"><title>ethash&#45;cl</title>
<ellipse fill="none" stroke="black" cx="797" cy="-508" rx="40.13" ry="18"/>
<text text-anchor="middle" x="797" y="-505" font-family="Courier,monospace" font-size="10.00">ethash&#45;cl</text>
</g>
<!-- ethashseal&#45;&gt;ethash&#45;cl -->
<g id="edge17" class="edge"><title>ethashseal&#45;&gt;ethash&#45;cl</title>
<path fill="none" stroke="black" stroke-dasharray="1,5" d="M789.472,-561.697C790.574,-553.983 791.898,-544.712 793.127,-536.112"/>
<polygon fill="black" stroke="black" points="796.607,-536.499 794.557,-526.104 789.677,-535.509 796.607,-536.499"/>
</g>
<!-- Cpuid -->
<g id="node50" class="node"><title>Cpuid</title>
<ellipse fill="none" stroke="black" cx="984" cy="-508" rx="27" ry="18"/>
<text text-anchor="middle" x="984" y="-505" font-family="Courier,monospace" font-size="10.00">Cpuid</text>
</g>
<!-- ethashseal&#45;&gt;Cpuid -->
<g id="edge18" class="edge"><title>ethashseal&#45;&gt;Cpuid</title>
<path fill="none" stroke="black" stroke-dasharray="1,5" d="M823.019,-569.665C857.14,-560.32 909.491,-544.669 953,-526 953.698,-525.7 954.401,-525.39 955.107,-525.071"/>
<polygon fill="black" stroke="black" points="956.85,-528.114 964.271,-520.553 953.754,-521.836 956.85,-528.114"/>
</g>
<!-- ethcore -->
<g id="node12" class="node"><title>ethcore</title>
<ellipse fill="none" stroke="black" cx="868" cy="-354" rx="33.2355" ry="18"/>
<text text-anchor="middle" x="868" y="-351" font-family="Courier,monospace" font-size="10.00">ethcore</text>
</g>
<!-- ethcore&#45;&gt;buildinfo -->
<g id="edge25" class="edge"><title>ethcore&#45;&gt;buildinfo</title>
<path fill="none" stroke="black" d="M849.571,-338.557C824.899,-319.333 779.64,-284.452 740,-256 685.543,-216.914 620.507,-173.448 583.252,-148.847"/>
<polygon fill="black" stroke="black" points="585.123,-145.888 574.848,-143.306 581.27,-151.733 585.123,-145.888"/>
</g>
<!-- devcrypto -->
<g id="node27" class="node"><title>devcrypto</title>
<ellipse fill="none" stroke="black" cx="390" cy="-282" rx="40.13" ry="18"/>
<text text-anchor="middle" x="390" y="-279" font-family="Courier,monospace" font-size="10.00">devcrypto</text>
</g>
<!-- ethcore&#45;&gt;devcrypto -->
<g id="edge26" class="edge"><title>ethcore&#45;&gt;devcrypto</title>
<path fill="none" stroke="black" d="M843.492,-341.823C837.842,-339.601 831.788,-337.495 826,-336 689.179,-300.658 521.962,-288.71 440.061,-284.807"/>
<polygon fill="black" stroke="black" points="440.178,-281.309 430.029,-284.349 439.859,-288.302 440.178,-281.309"/>
</g>
<!-- ethkey -->
<g id="node13" class="node"><title>ethkey</title>
<polygon fill="none" stroke="black" stroke-width="2" points="863,-444 809,-444 809,-408 863,-408 863,-444"/>
<text text-anchor="middle" x="836" y="-423" font-family="Courier,monospace" font-size="10.00">ethkey</text>
</g>
<!-- ethkey&#45;&gt;ethcore -->
<g id="edge33" class="edge"><title>ethkey&#45;&gt;ethcore</title>
<path fill="none" stroke="black" d="M843.91,-407.697C847.607,-399.609 852.086,-389.812 856.174,-380.869"/>
<polygon fill="black" stroke="black" points="859.427,-382.172 860.401,-371.622 853.06,-379.262 859.427,-382.172"/>
</g>
<!-- ethminer -->
<g id="node14" class="node"><title>ethminer</title>
<polygon fill="none" stroke="black" stroke-width="2" points="729.006,-672 664.994,-672 664.994,-636 729.006,-636 729.006,-672"/>
<text text-anchor="middle" x="697" y="-651" font-family="Courier,monospace" font-size="10.00">ethminer</text>
</g>
<!-- ethminer&#45;&gt;ethashseal -->
<g id="edge34" class="edge"><title>ethminer&#45;&gt;ethashseal</title>
<path fill="none" stroke="black" d="M718.329,-635.937C730.812,-625.95 746.693,-613.245 760.038,-602.569"/>
<polygon fill="black" stroke="black" points="762.344,-605.207 767.967,-596.227 757.971,-599.741 762.344,-605.207"/>
</g>
<!-- JsonRpc* -->
<g id="node51" class="node"><title>JsonRpc*</title>
<ellipse fill="none" stroke="black" cx="334" cy="-580" rx="36.433" ry="18"/>
<text text-anchor="middle" x="334" y="-577" font-family="Courier,monospace" font-size="10.00">JsonRpc*</text>
</g>
<!-- ethminer&#45;&gt;JsonRpc* -->
<g id="edge35" class="edge"><title>ethminer&#45;&gt;JsonRpc*</title>
<path fill="none" stroke="black" d="M664.868,-651.905C601.107,-649.444 460.797,-642.523 415,-628 395.956,-621.961 376.531,-610.89 361.479,-601.01"/>
<polygon fill="black" stroke="black" points="363.401,-598.084 353.158,-595.377 359.477,-603.881 363.401,-598.084"/>
</g>
<!-- ethvm -->
<g id="node15" class="node"><title>ethvm</title>
<polygon fill="none" stroke="black" stroke-width="2" points="899,-672 845,-672 845,-636 899,-636 899,-672"/>
<text text-anchor="middle" x="872" y="-651" font-family="Courier,monospace" font-size="10.00">ethvm</text>
</g>
<!-- ethvm&#45;&gt;ethashseal -->
<g id="edge36" class="edge"><title>ethvm&#45;&gt;ethashseal</title>
<path fill="none" stroke="black" d="M851.856,-635.937C840.258,-626.113 825.554,-613.658 813.081,-603.092"/>
<polygon fill="black" stroke="black" points="815.153,-600.261 805.261,-596.468 810.629,-605.602 815.153,-600.261"/>
</g>
<!-- evmjit -->
<g id="node16" class="node"><title>evmjit</title>
<polygon fill="none" stroke="black" stroke-width="2" points="817,-372 763,-372 763,-336 817,-336 817,-372"/>
<text text-anchor="middle" x="790" y="-351" font-family="Courier,monospace" font-size="10.00">evmjit</text>
</g>
<!-- ethash -->
<g id="node17" class="node"><title>ethash</title>
<ellipse fill="none" stroke="black" cx="911" cy="-426" rx="30.0384" ry="18"/>
<text text-anchor="middle" x="911" y="-423" font-family="Courier,monospace" font-size="10.00">ethash</text>
</g>
<!-- ethash&#45;cl&#45;&gt;ethash -->
<g id="edge37" class="edge"><title>ethash&#45;cl&#45;&gt;ethash</title>
<path fill="none" stroke="black" d="M828.678,-496.819C842.765,-491.379 859.054,-483.767 872,-474 880.418,-467.649 888.182,-459.139 894.529,-451.107"/>
<polygon fill="black" stroke="black" points="897.395,-453.118 900.598,-443.019 891.796,-448.916 897.395,-453.118"/>
</g>
<!-- OpenCL -->
<g id="node54" class="node"><title>OpenCL</title>
<ellipse fill="none" stroke="black" cx="617" cy="-426" rx="30.0384" ry="18"/>
<text text-anchor="middle" x="617" y="-423" font-family="Courier,monospace" font-size="10.00">OpenCL</text>
</g>
<!-- ethash&#45;cl&#45;&gt;OpenCL -->
<g id="edge38" class="edge"><title>ethash&#45;cl&#45;&gt;OpenCL</title>
<path fill="none" stroke="black" d="M773.834,-493.13C765.629,-488.843 756.156,-484.576 747,-482 726.819,-476.322 671.388,-484.07 653,-474 643.767,-468.943 636.159,-460.41 630.354,-451.991"/>
<polygon fill="black" stroke="black" points="633.248,-450.016 624.965,-443.409 627.32,-453.739 633.248,-450.016"/>
</g>
<!-- evm&#45;&gt;ethcore -->
<g id="edge39" class="edge"><title>evm&#45;&gt;ethcore</title>
<path fill="none" stroke="black" d="M782.593,-412.485C798.359,-401.874 821.23,-386.48 839.337,-374.292"/>
<polygon fill="black" stroke="black" points="841.45,-377.089 847.792,-368.602 837.541,-371.282 841.45,-377.089"/>
</g>
<!-- evm&#45;&gt;evmjit -->
<g id="edge40" class="edge"><title>evm&#45;&gt;evmjit</title>
<path fill="none" stroke="black" stroke-dasharray="1,5" d="M770.162,-408.411C773.086,-400.539 776.655,-390.929 779.956,-382.042"/>
<polygon fill="black" stroke="black" points="783.319,-383.04 783.52,-372.447 776.757,-380.602 783.319,-383.04"/>
</g>
<!-- evmcore -->
<g id="node21" class="node"><title>evmcore</title>
<ellipse fill="none" stroke="black" cx="698" cy="-282" rx="33.2355" ry="18"/>
<text text-anchor="middle" x="698" y="-279" font-family="Courier,monospace" font-size="10.00">evmcore</text>
</g>
<!-- evm&#45;&gt;evmcore -->
<g id="edge41" class="edge"><title>evm&#45;&gt;evmcore</title>
<path fill="none" stroke="black" d="M759.769,-408.058C754.86,-389.74 745.893,-359.951 734,-336 729.102,-326.137 722.609,-315.976 716.486,-307.223"/>
<polygon fill="black" stroke="black" points="719.247,-305.067 710.56,-299.002 713.569,-309.161 719.247,-305.067"/>
</g>
<!-- evmasm -->
<g id="node20" class="node"><title>evmasm</title>
<ellipse fill="none" stroke="black" cx="695" cy="-354" rx="30.0384" ry="18"/>
<text text-anchor="middle" x="695" y="-351" font-family="Courier,monospace" font-size="10.00">evmasm</text>
</g>
<!-- evmasm&#45;&gt;evmcore -->
<g id="edge42" class="edge"><title>evmasm&#45;&gt;evmcore</title>
<path fill="none" stroke="black" d="M695.742,-335.697C696.072,-327.983 696.469,-318.712 696.838,-310.112"/>
<polygon fill="black" stroke="black" points="700.335,-310.245 697.267,-300.104 693.342,-309.945 700.335,-310.245"/>
</g>
<!-- devcore -->
<g id="node28" class="node"><title>devcore</title>
<ellipse fill="none" stroke="black" cx="390" cy="-210" rx="33.2355" ry="18"/>
<text text-anchor="middle" x="390" y="-207" font-family="Courier,monospace" font-size="10.00">devcore</text>
</g>
<!-- evmcore&#45;&gt;devcore -->
<g id="edge43" class="edge"><title>evmcore&#45;&gt;devcore</title>
<path fill="none" stroke="black" d="M667.907,-274.161C612.13,-261.484 492.691,-234.339 430.116,-220.117"/>
<polygon fill="black" stroke="black" points="430.742,-216.67 420.215,-217.867 429.191,-223.496 430.742,-216.67"/>
</g>
<!-- lll&#45;&gt;evmasm -->
<g id="edge44" class="edge"><title>lll&#45;&gt;evmasm</title>
<path fill="none" stroke="black" d="M692.742,-407.697C693.072,-399.983 693.469,-390.712 693.838,-382.112"/>
<polygon fill="black" stroke="black" points="697.335,-382.245 694.267,-372.104 690.342,-381.945 697.335,-382.245"/>
</g>
<!-- testutils -->
<g id="node23" class="node"><title>testutils</title>
<ellipse fill="none" stroke="black" cx="787" cy="-654" rx="40.13" ry="18"/>
<text text-anchor="middle" x="787" y="-651" font-family="Courier,monospace" font-size="10.00">testutils</text>
</g>
<!-- testutils&#45;&gt;ethashseal -->
<g id="edge45" class="edge"><title>testutils&#45;&gt;ethashseal</title>
<path fill="none" stroke="black" d="M787,-635.937C787,-627.807 787,-617.876 787,-608.705"/>
<polygon fill="black" stroke="black" points="790.5,-608.441 787,-598.441 783.5,-608.441 790.5,-608.441"/>
</g>
<!-- lllc -->
<g id="node24" class="node"><title>lllc</title>
<polygon fill="none" stroke="black" stroke-width="2" points="924,-526 870,-526 870,-490 924,-490 924,-526"/>
<text text-anchor="middle" x="897" y="-505" font-family="Courier,monospace" font-size="10.00">lllc</text>
</g>
<!-- lllc&#45;&gt;buildinfo -->
<g id="edge46" class="edge"><title>lllc&#45;&gt;buildinfo</title>
<path fill="none" stroke="black" d="M924.271,-495.846C933.849,-490.599 943.765,-483.391 950,-474 979.625,-429.38 969,-408.559 969,-355 969,-355 969,-355 969,-281 969,-203.345 710.03,-153.606 600.746,-136.074"/>
<polygon fill="black" stroke="black" points="601.075,-132.582 590.651,-134.478 599.982,-139.497 601.075,-132.582"/>
</g>
<!-- lllc&#45;&gt;lll -->
<g id="edge47" class="edge"><title>lllc&#45;&gt;lll</title>
<path fill="none" stroke="black" d="M869.971,-491.341C862.438,-487.653 854.096,-484.169 846,-482 820.613,-475.199 751.16,-486.425 728,-474 718.724,-469.023 711.107,-460.505 705.308,-452.077"/>
<polygon fill="black" stroke="black" points="708.199,-450.099 699.928,-443.478 702.265,-453.812 708.199,-450.099"/>
</g>
<!-- testeth -->
<g id="node25" class="node"><title>testeth</title>
<polygon fill="none" stroke="black" stroke-width="2" points="769.005,-744 710.995,-744 710.995,-708 769.005,-708 769.005,-744"/>
<text text-anchor="middle" x="740" y="-723" font-family="Courier,monospace" font-size="10.00">testeth</text>
</g>
<!-- testeth&#45;&gt;testutils -->
<g id="edge48" class="edge"><title>testeth&#45;&gt;testutils</title>
<path fill="none" stroke="black" d="M751.618,-707.697C757.221,-699.351 764.047,-689.185 770.204,-680.016"/>
<polygon fill="black" stroke="black" points="773.171,-681.876 775.839,-671.622 767.359,-677.973 773.171,-681.876"/>
</g>
<!-- p2p&#45;&gt;devcrypto -->
<g id="edge27" class="edge"><title>p2p&#45;&gt;devcrypto</title>
<path fill="none" stroke="black" d="M332.57,-338.834C342.319,-329.356 355.364,-316.673 366.558,-305.791"/>
<polygon fill="black" stroke="black" points="369.218,-308.086 373.948,-298.606 364.338,-303.067 369.218,-308.086"/>
</g>
<!-- Miniupnpc -->
<g id="node52" class="node"><title>Miniupnpc</title>
<ellipse fill="none" stroke="black" cx="235" cy="-282" rx="40.13" ry="18"/>
<text text-anchor="middle" x="235" y="-279" font-family="Courier,monospace" font-size="10.00">Miniupnpc</text>
</g>
<!-- p2p&#45;&gt;Miniupnpc -->
<g id="edge28" class="edge"><title>p2p&#45;&gt;Miniupnpc</title>
<path fill="none" stroke="black" stroke-dasharray="1,5" d="M301.602,-339.17C290.021,-329.403 274.263,-316.114 260.983,-304.913"/>
<polygon fill="black" stroke="black" points="262.994,-302.031 253.093,-298.259 258.481,-307.382 262.994,-302.031"/>
</g>
<!-- devcrypto&#45;&gt;scrypt -->
<g id="edge29" class="edge"><title>devcrypto&#45;&gt;scrypt</title>
<path fill="none" stroke="black" d="M405.23,-264.877C414.02,-254.881 424.737,-241.424 432,-228 444.407,-205.068 453.293,-176.632 458.697,-156.128"/>
<polygon fill="black" stroke="black" points="462.149,-156.752 461.205,-146.2 455.362,-155.038 462.149,-156.752"/>
</g>
<!-- devcrypto&#45;&gt;secp256k1 -->
<g id="edge30" class="edge"><title>devcrypto&#45;&gt;secp256k1</title>
<path fill="none" stroke="black" d="M355.261,-272.857C299.828,-259.702 197.051,-234.581 192,-228 180.093,-212.487 181.63,-200.58 192,-184 206.694,-160.507 234.619,-146.787 259.032,-138.926"/>
<polygon fill="black" stroke="black" points="260.29,-142.203 268.879,-136 258.296,-135.493 260.29,-142.203"/>
</g>
<!-- devcrypto&#45;&gt;devcore -->
<g id="edge31" class="edge"><title>devcrypto&#45;&gt;devcore</title>
<path fill="none" stroke="black" d="M390,-263.697C390,-255.983 390,-246.712 390,-238.112"/>
<polygon fill="black" stroke="black" points="393.5,-238.104 390,-228.104 386.5,-238.104 393.5,-238.104"/>
</g>
<!-- Cryptopp -->
<g id="node53" class="node"><title>Cryptopp</title>
<ellipse fill="none" stroke="black" cx="238" cy="-210" rx="36.433" ry="18"/>
<text text-anchor="middle" x="238" y="-207" font-family="Courier,monospace" font-size="10.00">Cryptopp</text>
</g>
<!-- devcrypto&#45;&gt;Cryptopp -->
<g id="edge32" class="edge"><title>devcrypto&#45;&gt;Cryptopp</title>
<path fill="none" stroke="black" d="M362.825,-268.485C337.771,-256.947 300.44,-239.755 273.13,-227.178"/>
<polygon fill="black" stroke="black" points="274.472,-223.943 263.925,-222.939 271.544,-230.301 274.472,-223.943"/>
</g>
<!-- devcore&#45;&gt;base -->
<g id="edge49" class="edge"><title>devcore&#45;&gt;base</title>
<path fill="none" stroke="black" d="M390,-191.641C390,-181.297 390,-167.941 390,-156.221"/>
<polygon fill="black" stroke="black" points="393.5,-156.05 390,-146.05 386.5,-156.05 393.5,-156.05"/>
</g>
<!-- bench -->
<g id="node29" class="node"><title>bench</title>
<polygon fill="none" stroke="black" stroke-width="2" points="489,-372 435,-372 435,-336 489,-336 489,-372"/>
<text text-anchor="middle" x="462" y="-351" font-family="Courier,monospace" font-size="10.00">bench</text>
</g>
<!-- bench&#45;&gt;devcrypto -->
<g id="edge50" class="edge"><title>bench&#45;&gt;devcrypto</title>
<path fill="none" stroke="black" d="M444.202,-335.697C434.911,-326.663 423.424,-315.495 413.419,-305.769"/>
<polygon fill="black" stroke="black" points="415.729,-303.133 406.119,-298.671 410.849,-308.152 415.729,-303.133"/>
</g>
<!-- rlp -->
<g id="node30" class="node"><title>rlp</title>
<polygon fill="none" stroke="black" stroke-width="2" points="417,-372 363,-372 363,-336 417,-336 417,-372"/>
<text text-anchor="middle" x="390" y="-351" font-family="Courier,monospace" font-size="10.00">rlp</text>
</g>
<!-- rlp&#45;&gt;devcrypto -->
<g id="edge51" class="edge"><title>rlp&#45;&gt;devcrypto</title>
<path fill="none" stroke="black" d="M390,-335.697C390,-327.983 390,-318.712 390,-310.112"/>
<polygon fill="black" stroke="black" points="393.5,-310.104 390,-300.104 386.5,-310.104 393.5,-310.104"/>
</g>
<!-- testweb3core -->
<g id="node31" class="node"><title>testweb3core</title>
<polygon fill="none" stroke="black" stroke-width="2" points="379.009,-444 290.991,-444 290.991,-408 379.009,-408 379.009,-444"/>
<text text-anchor="middle" x="335" y="-423" font-family="Courier,monospace" font-size="10.00">testweb3core</text>
</g>
<!-- testweb3core&#45;&gt;p2p -->
<g id="edge52" class="edge"><title>testweb3core&#45;&gt;p2p</title>
<path fill="none" stroke="black" d="M330.798,-407.697C328.904,-399.898 326.623,-390.509 324.516,-381.829"/>
<polygon fill="black" stroke="black" points="327.915,-380.996 322.154,-372.104 321.113,-382.648 327.915,-380.996"/>
</g>
<!-- Mix -->
<g id="node32" class="node"><title>Mix</title>
<ellipse fill="none" stroke="black" cx="283" cy="-808" rx="27" ry="18"/>
<text text-anchor="middle" x="283" y="-805" font-family="Courier,monospace" font-size="10.00">Mix</text>
</g>
<!-- Mix&#45;&gt;web3jsonrpc -->
<g id="edge54" class="edge"><title>Mix&#45;&gt;web3jsonrpc</title>
<path fill="none" stroke="black" d="M264.359,-794.675C245.397,-782.139 215.676,-762.488 193.135,-747.585"/>
<polygon fill="black" stroke="black" points="194.852,-744.524 184.58,-741.929 190.991,-750.363 194.852,-744.524"/>
</g>
<!-- Mix&#45;&gt;Qt* -->
<g id="edge53" class="edge"><title>Mix&#45;&gt;Qt*</title>
<path fill="none" stroke="black" d="M293.471,-791.195C301.021,-779.799 311.35,-764.207 319.939,-751.244"/>
<polygon fill="black" stroke="black" points="322.945,-753.042 325.551,-742.773 317.11,-749.176 322.945,-753.042"/>
</g>
<!-- soljson -->
<g id="node33" class="node"><title>soljson</title>
<ellipse fill="none" stroke="black" cx="532" cy="-580" rx="33.2355" ry="18"/>
<text text-anchor="middle" x="532" y="-577" font-family="Courier,monospace" font-size="10.00">soljson</text>
</g>
<!-- solidity -->
<g id="node34" class="node"><title>solidity</title>
<ellipse fill="none" stroke="black" cx="521" cy="-508" rx="36.433" ry="18"/>
<text text-anchor="middle" x="521" y="-505" font-family="Courier,monospace" font-size="10.00">solidity</text>
</g>
<!-- soljson&#45;&gt;solidity -->
<g id="edge1" class="edge"><title>soljson&#45;&gt;solidity</title>
<path fill="none" stroke="black" d="M529.337,-562.055C528.126,-554.346 526.661,-545.027 525.3,-536.364"/>
<polygon fill="black" stroke="black" points="528.725,-535.611 523.715,-526.275 521.81,-536.697 528.725,-535.611"/>
</g>
<!-- solidity&#45;&gt;evmasm -->
<g id="edge22" class="edge"><title>solidity&#45;&gt;evmasm</title>
<path fill="none" stroke="black" d="M526.932,-490.172C535.295,-468.591 552.443,-431.189 578,-408 600.788,-387.323 633.003,-373.538 657.861,-365.223"/>
<polygon fill="black" stroke="black" points="659.21,-368.466 667.673,-362.093 657.083,-361.797 659.21,-368.466"/>
</g>
<!-- solc -->
<g id="node35" class="node"><title>solc</title>
<polygon fill="none" stroke="black" stroke-width="2" points="481,-598 427,-598 427,-562 481,-562 481,-598"/>
<text text-anchor="middle" x="454" y="-577" font-family="Courier,monospace" font-size="10.00">solc</text>
</g>
<!-- solc&#45;&gt;solidity -->
<g id="edge55" class="edge"><title>solc&#45;&gt;solidity</title>
<path fill="none" stroke="black" d="M470.562,-561.697C479.123,-552.752 489.688,-541.714 498.933,-532.055"/>
<polygon fill="black" stroke="black" points="501.614,-534.316 506,-524.671 496.557,-529.475 501.614,-534.316"/>
</g>
<!-- soltest -->
<g id="node36" class="node"><title>soltest</title>
<polygon fill="none" stroke="black" stroke-width="2" points="641.005,-598 582.995,-598 582.995,-562 641.005,-562 641.005,-598"/>
<text text-anchor="middle" x="612" y="-577" font-family="Courier,monospace" font-size="10.00">soltest</text>
</g>
<!-- soltest&#45;&gt;ethereum -->
<g id="edge56" class="edge"><title>soltest&#45;&gt;ethereum</title>
<path fill="none" stroke="black" d="M634.247,-561.697C646.63,-552.065 662.133,-540.008 675.183,-529.858"/>
<polygon fill="black" stroke="black" points="677.602,-532.41 683.347,-523.508 673.304,-526.885 677.602,-532.41"/>
</g>
<!-- soltest&#45;&gt;solidity -->
<g id="edge57" class="edge"><title>soltest&#45;&gt;solidity</title>
<path fill="none" stroke="black" d="M589.506,-561.697C576.985,-552.065 561.31,-540.008 548.115,-529.858"/>
<polygon fill="black" stroke="black" points="549.921,-526.831 539.86,-523.508 545.653,-532.379 549.921,-526.831"/>
</g>
<!-- web3jsonrpc&#45;&gt;solidity -->
<g id="edge19" class="edge"><title>web3jsonrpc&#45;&gt;solidity</title>
<path fill="none" stroke="black" stroke-dasharray="1,5" d="M208.819,-722.929C251.873,-718.769 315.319,-706.673 358,-672 403.665,-634.903 375.199,-594.368 418,-554 435.08,-537.891 458.855,-526.985 479.261,-519.948"/>
<polygon fill="black" stroke="black" points="480.532,-523.215 488.963,-516.799 478.371,-516.557 480.532,-523.215"/>
</g>
<!-- webthree -->
<g id="node38" class="node"><title>webthree</title>
<ellipse fill="none" stroke="black" cx="164" cy="-654" rx="36.433" ry="18"/>
<text text-anchor="middle" x="164" y="-651" font-family="Courier,monospace" font-size="10.00">webthree</text>
</g>
<!-- web3jsonrpc&#45;&gt;webthree -->
<g id="edge20" class="edge"><title>web3jsonrpc&#45;&gt;webthree</title>
<path fill="none" stroke="black" d="M162.494,-707.697C162.715,-699.983 162.98,-690.712 163.225,-682.112"/>
<polygon fill="black" stroke="black" points="166.724,-682.2 163.511,-672.104 159.727,-682 166.724,-682.2"/>
</g>
<!-- web3jsonrpc&#45;&gt;JsonRpc* -->
<g id="edge21" class="edge"><title>web3jsonrpc&#45;&gt;JsonRpc*</title>
<path fill="none" stroke="black" d="M204.662,-718.179C251.711,-709.684 322.91,-693.613 339,-672 352.597,-653.735 349.327,-627.247 343.856,-607.554"/>
<polygon fill="black" stroke="black" points="347.183,-606.465 340.872,-597.955 340.498,-608.543 347.183,-606.465"/>
</g>
<!-- webthree&#45;&gt;ethashseal -->
<g id="edge23" class="edge"><title>webthree&#45;&gt;ethashseal</title>
<path fill="none" stroke="black" d="M196.097,-645.093C211.664,-641.621 230.696,-637.906 248,-636 337.476,-626.143 564.413,-643.987 653,-628 686.708,-621.917 723.298,-608.593 749.712,-597.679"/>
<polygon fill="black" stroke="black" points="751.101,-600.892 758.959,-593.785 748.385,-594.441 751.101,-600.892"/>
</g>
<!-- whisper -->
<g id="node42" class="node"><title>whisper</title>
<ellipse fill="none" stroke="black" cx="169" cy="-580" rx="33.2355" ry="18"/>
<text text-anchor="middle" x="169" y="-577" font-family="Courier,monospace" font-size="10.00">whisper</text>
</g>
<!-- webthree&#45;&gt;whisper -->
<g id="edge24" class="edge"><title>webthree&#45;&gt;whisper</title>
<path fill="none" stroke="black" d="M165.185,-635.937C165.75,-627.807 166.439,-617.876 167.076,-608.705"/>
<polygon fill="black" stroke="black" points="170.588,-608.659 167.789,-598.441 163.604,-608.174 170.588,-608.659"/>
</g>
<!-- eth -->
<g id="node39" class="node"><title>eth</title>
<polygon fill="none" stroke="black" stroke-width="2" points="94,-826 40,-826 40,-790 94,-790 94,-826"/>
<text text-anchor="middle" x="67" y="-805" font-family="Courier,monospace" font-size="10.00">eth</text>
</g>
<!-- eth&#45;&gt;web3jsonrpc -->
<g id="edge58" class="edge"><title>eth&#45;&gt;web3jsonrpc</title>
<path fill="none" stroke="black" d="M87.6136,-789.641C101.611,-777.854 120.253,-762.155 135.373,-749.423"/>
<polygon fill="black" stroke="black" points="137.964,-751.817 143.359,-742.698 133.455,-746.462 137.964,-751.817"/>
</g>
<!-- jsconsole -->
<g id="node40" class="node"><title>jsconsole</title>
<ellipse fill="none" stroke="black" cx="56" cy="-726" rx="40.13" ry="18"/>
<text text-anchor="middle" x="56" y="-723" font-family="Courier,monospace" font-size="10.00">jsconsole</text>
</g>
<!-- eth&#45;&gt;jsconsole -->
<g id="edge59" class="edge"><title>eth&#45;&gt;jsconsole</title>
<path fill="none" stroke="black" d="M64.6132,-789.641C63.1909,-779.297 61.3544,-765.941 59.7428,-754.221"/>
<polygon fill="black" stroke="black" points="63.174,-753.48 58.3444,-744.05 56.2393,-754.434 63.174,-753.48"/>
</g>
<!-- jsconsole&#45;&gt;devcore -->
<g id="edge60" class="edge"><title>jsconsole&#45;&gt;devcore</title>
<path fill="none" stroke="black" d="M44.8747,-708.468C38.5084,-698.328 30.8479,-684.862 26,-672 11.4277,-633.339 7,-622.317 7,-581 7,-581 7,-581 7,-353 7,-280.826 249.129,-233.653 348.351,-217.351"/>
<polygon fill="black" stroke="black" points="349.019,-220.789 358.332,-215.737 347.901,-213.879 349.019,-220.789"/>
</g>
<!-- jsengine -->
<g id="node41" class="node"><title>jsengine</title>
<ellipse fill="none" stroke="black" cx="72" cy="-654" rx="36.433" ry="18"/>
<text text-anchor="middle" x="72" y="-651" font-family="Courier,monospace" font-size="10.00">jsengine</text>
</g>
<!-- jsconsole&#45;&gt;jsengine -->
<g id="edge62" class="edge"><title>jsconsole&#45;&gt;jsengine</title>
<path fill="none" stroke="black" d="M59.8732,-708.055C61.6547,-700.261 63.8121,-690.822 65.8105,-682.079"/>
<polygon fill="black" stroke="black" points="69.235,-682.804 68.0514,-672.275 62.411,-681.244 69.235,-682.804"/>
</g>
<!-- jsconsole&#45;&gt;JsonRpc* -->
<g id="edge61" class="edge"><title>jsconsole&#45;&gt;JsonRpc*</title>
<path fill="none" stroke="black" d="M86.9991,-714.439C130.918,-699.451 206.272,-673.633 209,-672 229.239,-659.883 226.984,-646.713 248,-636 264.152,-627.766 272.062,-636.641 288,-628 298.345,-622.392 307.816,-613.682 315.44,-605.276"/>
<polygon fill="black" stroke="black" points="318.316,-607.298 322.152,-597.422 312.994,-602.75 318.316,-607.298"/>
</g>
<!-- Readline -->
<g id="node55" class="node"><title>Readline</title>
<ellipse fill="none" stroke="black" cx="294" cy="-654" rx="36.433" ry="18"/>
<text text-anchor="middle" x="294" y="-651" font-family="Courier,monospace" font-size="10.00">Readline</text>
</g>
<!-- jsconsole&#45;&gt;Readline -->
<g id="edge63" class="edge"><title>jsconsole&#45;&gt;Readline</title>
<path fill="none" stroke="black" stroke-dasharray="1,5" d="M86.5628,-714.226C92.9581,-712.08 99.6787,-709.903 106,-708 166.285,-689.856 182.661,-689.964 243,-672 247.025,-670.802 251.211,-669.499 255.377,-668.166"/>
<polygon fill="black" stroke="black" points="256.554,-671.464 264.976,-665.036 254.383,-664.809 256.554,-671.464"/>
</g>
<!-- V8 -->
<g id="node56" class="node"><title>V8</title>
<ellipse fill="none" stroke="black" cx="252" cy="-580" rx="27" ry="18"/>
<text text-anchor="middle" x="252" y="-577" font-family="Courier,monospace" font-size="10.00">V8</text>
</g>
<!-- jsengine&#45;&gt;V8 -->
<g id="edge64" class="edge"><title>jsengine&#45;&gt;V8</title>
<path fill="none" stroke="black" d="M98.8701,-641.66C105.057,-639.446 111.679,-637.385 118,-636 140.426,-631.085 201.222,-639.658 221,-628 229.321,-623.095 235.837,-614.975 240.701,-606.851"/>
<polygon fill="black" stroke="black" points="243.884,-608.321 245.5,-597.85 237.707,-605.028 243.884,-608.321"/>
</g>
<!-- whisper&#45;&gt;p2p -->
<g id="edge65" class="edge"><title>whisper&#45;&gt;p2p</title>
<path fill="none" stroke="black" d="M191.822,-566.546C199.463,-562.46 208.058,-557.956 216,-554 291.466,-516.413 342.666,-545.083 388,-474 403.773,-449.268 401.058,-434.266 388,-408 379.739,-391.384 363.506,-378.586 348.751,-369.732"/>
<polygon fill="black" stroke="black" points="350.272,-366.573 339.839,-364.73 346.846,-372.677 350.272,-366.573"/>
</g>
<!-- ethrpctest -->
<g id="node43" class="node"><title>ethrpctest</title>
<polygon fill="none" stroke="black" stroke-width="2" points="200.007,-826 123.993,-826 123.993,-790 200.007,-790 200.007,-826"/>
<text text-anchor="middle" x="162" y="-805" font-family="Courier,monospace" font-size="10.00">ethrpctest</text>
</g>
<!-- ethrpctest&#45;&gt;web3jsonrpc -->
<g id="edge66" class="edge"><title>ethrpctest&#45;&gt;web3jsonrpc</title>
<path fill="none" stroke="black" d="M162,-789.641C162,-779.297 162,-765.941 162,-754.221"/>
<polygon fill="black" stroke="black" points="165.5,-754.05 162,-744.05 158.5,-754.05 165.5,-754.05"/>
</g>
</g>
</svg>
