<?xml version="1.0" encoding="UTF-8" standalone="no"?>
<!DOCTYPE svg PUBLIC "-//W3C//DTD SVG 1.1//EN"
 "http://www.w3.org/Graphics/SVG/1.1/DTD/svg11.dtd">
<!-- Generated by graphviz version 2.36.0 (20140111.2315)
 -->
<!-- Title: webthree Pages: 1 -->
<svg width="1060pt" height="914pt"
 viewBox="0.00 0.00 1060.00 914.00" xmlns="http://www.w3.org/2000/svg" xmlns:xlink="http://www.w3.org/1999/xlink">
<g id="graph0" class="graph" transform="scale(1 1) rotate(0) translate(4 910)">
<title>webthree</title>
<polygon fill="white" stroke="none" points="-4,4 -4,-910 1056,-910 1056,4 -4,4"/>
<text text-anchor="middle" x="526" y="-6.8" font-family="Times,serif" font-size="14.00">webthree dependencies</text>
<g id="clust1" class="cluster"><title>cluster_cpp_ethereum</title>
<polygon fill="AliceBlue" stroke="black" points="62,-30 62,-824 404,-824 404,-30 62,-30"/>
<text text-anchor="start" x="153.898" y="-808.8" font-family="Times,serif" font-size="14.00">cpp_ethereum dependencies</text>
</g>
<g id="clust2" class="cluster"><title>cluster_solidity</title>
<polygon fill="WhiteSmoke" stroke="black" points="742,-534 742,-824 1044,-824 1044,-534 742,-534"/>
<text text-anchor="start" x="832.543" y="-808.8" font-family="Times,serif" font-size="14.00">solidity dependencies</text>
</g>
<g id="clust4" class="cluster"><title>cluster_alethzero</title>
<polygon fill="LightGray" stroke="black" points="412,-750 412,-898 580,-898 580,-750 412,-750"/>
<text text-anchor="start" x="430.898" y="-882.8" font-family="Times,serif" font-size="14.00">alethzero dependencies</text>
</g>
<g id="clust8" class="cluster"><title>cluster_mix</title>
<polygon fill="Honeydew" stroke="black" points="588,-750 588,-824 704,-824 704,-750 588,-750"/>
<text text-anchor="start" x="595.657" y="-808.8" font-family="Times,serif" font-size="14.00">mix dependencies</text>
</g>
<!-- buildinfo -->
<g id="node1" class="node"><title>buildinfo</title>
<ellipse fill="none" stroke="black" cx="199" cy="-272" rx="40.13" ry="18"/>
<text text-anchor="middle" x="199" y="-269" font-family="Courier,monospace" font-size="10.00">buildinfo</text>
</g>
<!-- base -->
<g id="node2" class="node"><title>base</title>
<ellipse fill="none" stroke="black" cx="369" cy="-128" rx="27" ry="18"/>
<text text-anchor="middle" x="369" y="-125" font-family="Courier,monospace" font-size="10.00">base</text>
</g>
<!-- json_spirit -->
<g id="node3" class="node"><title>json_spirit</title>
<ellipse fill="none" stroke="black" cx="346" cy="-56" rx="47.0244" ry="18"/>
<text text-anchor="middle" x="346" y="-53" font-family="Courier,monospace" font-size="10.00">json_spirit</text>
</g>
<!-- base&#45;&gt;json_spirit -->
<g id="edge6" class="edge"><title>base&#45;&gt;json_spirit</title>
<path fill="none" stroke="black" d="M363.432,-110.055C360.844,-102.176 357.703,-92.6165 354.804,-83.794"/>
<polygon fill="black" stroke="black" points="358.123,-82.6831 351.676,-74.2753 351.473,-84.8682 358.123,-82.6831"/>
</g>
<!-- boost -->
<g id="node42" class="node"><title>boost</title>
<ellipse fill="none" stroke="black" cx="615" cy="-56" rx="27" ry="18"/>
<text text-anchor="middle" x="615" y="-53" font-family="Courier,monospace" font-size="10.00">boost</text>
</g>
<!-- base&#45;&gt;boost -->
<g id="edge7" class="edge"><title>base&#45;&gt;boost</title>
<path fill="none" stroke="black" d="M389.596,-116.256C394.549,-113.959 399.888,-111.712 405,-110 479.47,-85.0589 503.4,-98.5503 578,-74 580.266,-73.2542 582.578,-72.4095 584.884,-71.5051"/>
<polygon fill="black" stroke="black" points="586.362,-74.6801 594.199,-67.5504 583.626,-68.2368 586.362,-74.6801"/>
</g>
<!-- Jsoncpp -->
<g id="node43" class="node"><title>Jsoncpp</title>
<ellipse fill="none" stroke="black" cx="693" cy="-56" rx="33.2355" ry="18"/>
<text text-anchor="middle" x="693" y="-53" font-family="Courier,monospace" font-size="10.00">Jsoncpp</text>
</g>
<!-- base&#45;&gt;Jsoncpp -->
<g id="edge8" class="edge"><title>base&#45;&gt;Jsoncpp</title>
<path fill="none" stroke="black" d="M389.525,-116.033C394.481,-113.745 399.839,-111.558 405,-110 510.781,-78.0595 544.358,-102.936 651,-74 653.458,-73.3331 655.966,-72.563 658.472,-71.7264"/>
<polygon fill="black" stroke="black" points="659.82,-74.9603 668.018,-68.2484 657.424,-68.3832 659.82,-74.9603"/>
</g>
<!-- LevelDB -->
<g id="node44" class="node"><title>LevelDB</title>
<ellipse fill="none" stroke="black" cx="445" cy="-56" rx="33.2355" ry="18"/>
<text text-anchor="middle" x="445" y="-53" font-family="Courier,monospace" font-size="10.00">LevelDB</text>
</g>
<!-- base&#45;&gt;LevelDB -->
<g id="edge9" class="edge"><title>base&#45;&gt;LevelDB</title>
<path fill="none" stroke="black" d="M384.38,-112.834C394.983,-103.069 409.28,-89.9004 421.326,-78.8048"/>
<polygon fill="black" stroke="black" points="423.872,-81.2185 428.856,-71.8693 419.13,-76.0697 423.872,-81.2185"/>
</g>
<!-- pthreads -->
<g id="node45" class="node"><title>pthreads</title>
<ellipse fill="none" stroke="black" cx="533" cy="-56" rx="36.433" ry="18"/>
<text text-anchor="middle" x="533" y="-53" font-family="Courier,monospace" font-size="10.00">pthreads</text>
</g>
<!-- base&#45;&gt;pthreads -->
<g id="edge10" class="edge"><title>base&#45;&gt;pthreads</title>
<path fill="none" stroke="black" d="M390.242,-116.76C395.073,-114.489 400.197,-112.127 405,-110 435.421,-96.5286 470.339,-82.1411 496.012,-71.7607"/>
<polygon fill="black" stroke="black" points="497.403,-74.9735 505.37,-67.9889 494.786,-68.4811 497.403,-74.9735"/>
</g>
<!-- scrypt -->
<g id="node4" class="node"><title>scrypt</title>
<ellipse fill="none" stroke="black" cx="366" cy="-200" rx="30.0384" ry="18"/>
<text text-anchor="middle" x="366" y="-197" font-family="Courier,monospace" font-size="10.00">scrypt</text>
</g>
<!-- secp256k1 -->
<g id="node5" class="node"><title>secp256k1</title>
<ellipse fill="none" stroke="black" cx="278" cy="-200" rx="40.13" ry="18"/>
<text text-anchor="middle" x="278" y="-197" font-family="Courier,monospace" font-size="10.00">secp256k1</text>
</g>
<!-- gmp -->
<g id="node46" class="node"><title>gmp</title>
<ellipse fill="none" stroke="black" cx="441" cy="-128" rx="27" ry="18"/>
<text text-anchor="middle" x="441" y="-125" font-family="Courier,monospace" font-size="10.00">gmp</text>
</g>
<!-- secp256k1&#45;&gt;gmp -->
<g id="edge11" class="edge"><title>secp256k1&#45;&gt;gmp</title>
<path fill="none" stroke="black" d="M307.749,-187.738C334.307,-177.479 374.126,-161.593 408,-146 409.153,-145.469 410.323,-144.92 411.502,-144.358"/>
<polygon fill="black" stroke="black" points="413.125,-147.46 420.543,-139.894 410.026,-141.183 413.125,-147.46"/>
</g>
<!-- testeth -->
<g id="node6" class="node"><title>testeth</title>
<polygon fill="none" stroke="black" stroke-width="2" points="139.005,-722 80.9949,-722 80.9949,-686 139.005,-686 139.005,-722"/>
<text text-anchor="middle" x="110" y="-701" font-family="Courier,monospace" font-size="10.00">testeth</text>
</g>
<!-- testutils -->
<g id="node22" class="node"><title>testutils</title>
<ellipse fill="none" stroke="black" cx="110" cy="-632" rx="40.13" ry="18"/>
<text text-anchor="middle" x="110" y="-629" font-family="Courier,monospace" font-size="10.00">testutils</text>
</g>
<!-- testeth&#45;&gt;testutils -->
<g id="edge12" class="edge"><title>testeth&#45;&gt;testutils</title>
<path fill="none" stroke="black" d="M110,-685.697C110,-677.983 110,-668.712 110,-660.112"/>
<polygon fill="black" stroke="black" points="113.5,-660.104 110,-650.104 106.5,-660.104 113.5,-660.104"/>
</g>
<!-- evmcore -->
<g id="node7" class="node"><title>evmcore</title>
<ellipse fill="none" stroke="black" cx="105" cy="-272" rx="33.2355" ry="18"/>
<text text-anchor="middle" x="105" y="-269" font-family="Courier,monospace" font-size="10.00">evmcore</text>
</g>
<!-- devcore -->
<g id="node23" class="node"><title>devcore</title>
<ellipse fill="none" stroke="black" cx="186" cy="-200" rx="33.2355" ry="18"/>
<text text-anchor="middle" x="186" y="-197" font-family="Courier,monospace" font-size="10.00">devcore</text>
</g>
<!-- evmcore&#45;&gt;devcore -->
<g id="edge13" class="edge"><title>evmcore&#45;&gt;devcore</title>
<path fill="none" stroke="black" d="M122.178,-256.155C133.53,-246.344 148.591,-233.329 161.231,-222.405"/>
<polygon fill="black" stroke="black" points="163.847,-224.771 169.124,-215.584 159.27,-219.474 163.847,-224.771"/>
</g>
<!-- ethereum -->
<g id="node8" class="node"><title>ethereum</title>
<ellipse fill="none" stroke="black" cx="233" cy="-488" rx="36.433" ry="18"/>
<text text-anchor="middle" x="233" y="-485" font-family="Courier,monospace" font-size="10.00">ethereum</text>
</g>
<!-- p2p -->
<g id="node13" class="node"><title>p2p</title>
<ellipse fill="none" stroke="black" cx="352" cy="-416" rx="27" ry="18"/>
<text text-anchor="middle" x="352" y="-413" font-family="Courier,monospace" font-size="10.00">p2p</text>
</g>
<!-- ethereum&#45;&gt;p2p -->
<g id="edge19" class="edge"><title>ethereum&#45;&gt;p2p</title>
<path fill="none" stroke="black" d="M255.663,-473.669C274.931,-462.335 302.694,-446.003 323.472,-433.781"/>
<polygon fill="black" stroke="black" points="325.342,-436.742 332.187,-428.655 321.793,-430.708 325.342,-436.742"/>
</g>
<!-- evm -->
<g id="node21" class="node"><title>evm</title>
<ellipse fill="none" stroke="black" cx="187" cy="-416" rx="27" ry="18"/>
<text text-anchor="middle" x="187" y="-413" font-family="Courier,monospace" font-size="10.00">evm</text>
</g>
<!-- ethereum&#45;&gt;evm -->
<g id="edge20" class="edge"><title>ethereum&#45;&gt;evm</title>
<path fill="none" stroke="black" d="M222.331,-470.765C216.56,-461.983 209.319,-450.963 202.897,-441.19"/>
<polygon fill="black" stroke="black" points="205.711,-439.101 197.295,-432.666 199.862,-442.945 205.711,-439.101"/>
</g>
<!-- ethashseal -->
<g id="node9" class="node"><title>ethashseal</title>
<ellipse fill="none" stroke="black" cx="194" cy="-560" rx="43.3279" ry="18"/>
<text text-anchor="middle" x="194" y="-557" font-family="Courier,monospace" font-size="10.00">ethashseal</text>
</g>
<!-- ethashseal&#45;&gt;ethereum -->
<g id="edge21" class="edge"><title>ethashseal&#45;&gt;ethereum</title>
<path fill="none" stroke="black" d="M203.242,-542.411C207.905,-534.042 213.662,-523.71 218.865,-514.37"/>
<polygon fill="black" stroke="black" points="222.014,-515.909 223.824,-505.47 215.899,-512.502 222.014,-515.909"/>
</g>
<!-- ethash&#45;cl -->
<g id="node20" class="node"><title>ethash&#45;cl</title>
<ellipse fill="none" stroke="black" cx="138" cy="-488" rx="40.13" ry="18"/>
<text text-anchor="middle" x="138" y="-485" font-family="Courier,monospace" font-size="10.00">ethash&#45;cl</text>
</g>
<!-- ethashseal&#45;&gt;ethash&#45;cl -->
<g id="edge22" class="edge"><title>ethashseal&#45;&gt;ethash&#45;cl</title>
<path fill="none" stroke="black" stroke-dasharray="1,5" d="M181.012,-542.765C173.944,-533.93 165.064,-522.83 157.211,-513.014"/>
<polygon fill="black" stroke="black" points="159.898,-510.77 150.918,-505.147 154.432,-515.142 159.898,-510.77"/>
</g>
<!-- Cpuid -->
<g id="node48" class="node"><title>Cpuid</title>
<ellipse fill="none" stroke="black" cx="27" cy="-488" rx="27" ry="18"/>
<text text-anchor="middle" x="27" y="-485" font-family="Courier,monospace" font-size="10.00">Cpuid</text>
</g>
<!-- ethashseal&#45;&gt;Cpuid -->
<g id="edge23" class="edge"><title>ethashseal&#45;&gt;Cpuid</title>
<path fill="none" stroke="black" stroke-dasharray="1,5" d="M161.907,-547.831C134.033,-537.816 92.7898,-522.234 58,-506 57.3117,-505.679 56.6174,-505.349 55.9195,-505.012"/>
<polygon fill="black" stroke="black" points="57.3121,-501.793 46.8144,-500.362 54.1283,-508.027 57.3121,-501.793"/>
</g>
<!-- web3jsonrpc -->
<g id="node10" class="node"><title>web3jsonrpc</title>
<ellipse fill="none" stroke="black" cx="349" cy="-704" rx="47.0244" ry="18"/>
<text text-anchor="middle" x="349" y="-701" font-family="Courier,monospace" font-size="10.00">web3jsonrpc</text>
</g>
<!-- webthree -->
<g id="node11" class="node"><title>webthree</title>
<ellipse fill="none" stroke="black" cx="277" cy="-632" rx="36.433" ry="18"/>
<text text-anchor="middle" x="277" y="-629" font-family="Courier,monospace" font-size="10.00">webthree</text>
</g>
<!-- web3jsonrpc&#45;&gt;webthree -->
<g id="edge24" class="edge"><title>web3jsonrpc&#45;&gt;webthree</title>
<path fill="none" stroke="black" d="M332.301,-686.765C322.807,-677.535 310.771,-665.833 300.353,-655.705"/>
<polygon fill="black" stroke="black" points="302.723,-653.127 293.113,-648.666 297.844,-658.146 302.723,-653.127"/>
</g>
<!-- JsonRpc* -->
<g id="node49" class="node"><title>JsonRpc*</title>
<ellipse fill="none" stroke="black" cx="449" cy="-560" rx="36.433" ry="18"/>
<text text-anchor="middle" x="449" y="-557" font-family="Courier,monospace" font-size="10.00">JsonRpc*</text>
</g>
<!-- web3jsonrpc&#45;&gt;JsonRpc* -->
<g id="edge25" class="edge"><title>web3jsonrpc&#45;&gt;JsonRpc*</title>
<path fill="none" stroke="black" d="M368.565,-687.521C380.164,-677.655 394.584,-664.107 405,-650 419.32,-630.606 431.126,-605.838 438.891,-587.357"/>
<polygon fill="black" stroke="black" points="442.143,-588.651 442.677,-578.07 435.661,-586.009 442.143,-588.651"/>
</g>
<!-- webthree&#45;&gt;ethashseal -->
<g id="edge26" class="edge"><title>webthree&#45;&gt;ethashseal</title>
<path fill="none" stroke="black" d="M259.398,-616.155C248.078,-606.608 233.159,-594.025 220.429,-583.29"/>
<polygon fill="black" stroke="black" points="222.341,-580.323 212.44,-576.552 217.828,-585.674 222.341,-580.323"/>
</g>
<!-- whisper -->
<g id="node28" class="node"><title>whisper</title>
<ellipse fill="none" stroke="black" cx="289" cy="-560" rx="33.2355" ry="18"/>
<text text-anchor="middle" x="289" y="-557" font-family="Courier,monospace" font-size="10.00">whisper</text>
</g>
<!-- webthree&#45;&gt;whisper -->
<g id="edge27" class="edge"><title>webthree&#45;&gt;whisper</title>
<path fill="none" stroke="black" d="M279.905,-614.055C281.226,-606.346 282.824,-597.027 284.309,-588.364"/>
<polygon fill="black" stroke="black" points="287.798,-588.723 286.039,-578.275 280.899,-587.54 287.798,-588.723"/>
</g>
<!-- ethcore -->
<g id="node12" class="node"><title>ethcore</title>
<ellipse fill="none" stroke="black" cx="199" cy="-344" rx="33.2355" ry="18"/>
<text text-anchor="middle" x="199" y="-341" font-family="Courier,monospace" font-size="10.00">ethcore</text>
</g>
<!-- ethcore&#45;&gt;buildinfo -->
<g id="edge28" class="edge"><title>ethcore&#45;&gt;buildinfo</title>
<path fill="none" stroke="black" d="M199,-325.697C199,-317.983 199,-308.712 199,-300.112"/>
<polygon fill="black" stroke="black" points="202.5,-300.104 199,-290.104 195.5,-300.104 202.5,-300.104"/>
</g>
<!-- devcrypto -->
<g id="node14" class="node"><title>devcrypto</title>
<ellipse fill="none" stroke="black" cx="324" cy="-272" rx="40.13" ry="18"/>
<text text-anchor="middle" x="324" y="-269" font-family="Courier,monospace" font-size="10.00">devcrypto</text>
</g>
<!-- ethcore&#45;&gt;devcrypto -->
<g id="edge29" class="edge"><title>ethcore&#45;&gt;devcrypto</title>
<path fill="none" stroke="black" d="M221.347,-330.485C240.641,-319.681 268.788,-303.919 290.731,-291.631"/>
<polygon fill="black" stroke="black" points="292.696,-294.542 299.711,-286.602 289.276,-288.434 292.696,-294.542"/>
</g>
<!-- p2p&#45;&gt;devcrypto -->
<g id="edge30" class="edge"><title>p2p&#45;&gt;devcrypto</title>
<path fill="none" stroke="black" d="M364.846,-399.93C378.47,-382.011 396.552,-351.341 385,-326 378.866,-312.544 367.44,-301.183 356.121,-292.473"/>
<polygon fill="black" stroke="black" points="358.136,-289.611 347.975,-286.608 354.045,-295.291 358.136,-289.611"/>
</g>
<!-- Miniupnpc -->
<g id="node50" class="node"><title>Miniupnpc</title>
<ellipse fill="none" stroke="black" cx="454" cy="-344" rx="40.13" ry="18"/>
<text text-anchor="middle" x="454" y="-341" font-family="Courier,monospace" font-size="10.00">Miniupnpc</text>
</g>
<!-- p2p&#45;&gt;Miniupnpc -->
<g id="edge31" class="edge"><title>p2p&#45;&gt;Miniupnpc</title>
<path fill="none" stroke="black" stroke-dasharray="1,5" d="M370.236,-402.485C385.167,-392.238 406.597,-377.531 424.043,-365.559"/>
<polygon fill="black" stroke="black" points="426.483,-368.129 432.747,-359.585 422.522,-362.358 426.483,-368.129"/>
</g>
<!-- devcrypto&#45;&gt;scrypt -->
<g id="edge32" class="edge"><title>devcrypto&#45;&gt;scrypt</title>
<path fill="none" stroke="black" d="M333.953,-254.411C339.027,-245.955 345.303,-235.494 350.953,-226.078"/>
<polygon fill="black" stroke="black" points="353.974,-227.846 356.118,-217.47 347.972,-224.244 353.974,-227.846"/>
</g>
<!-- devcrypto&#45;&gt;secp256k1 -->
<g id="edge33" class="edge"><title>devcrypto&#45;&gt;secp256k1</title>
<path fill="none" stroke="black" d="M313.099,-254.411C307.542,-245.955 300.668,-235.494 294.48,-226.078"/>
<polygon fill="black" stroke="black" points="297.24,-223.905 288.823,-217.47 291.39,-227.749 297.24,-223.905"/>
</g>
<!-- devcrypto&#45;&gt;devcore -->
<g id="edge34" class="edge"><title>devcrypto&#45;&gt;devcore</title>
<path fill="none" stroke="black" d="M298.367,-257.998C275.934,-246.619 243.217,-230.023 218.865,-217.671"/>
<polygon fill="black" stroke="black" points="220.155,-214.4 209.653,-212.998 216.988,-220.643 220.155,-214.4"/>
</g>
<!-- Cryptopp -->
<g id="node51" class="node"><title>Cryptopp</title>
<ellipse fill="none" stroke="black" cx="451" cy="-200" rx="36.433" ry="18"/>
<text text-anchor="middle" x="451" y="-197" font-family="Courier,monospace" font-size="10.00">Cryptopp</text>
</g>
<!-- devcrypto&#45;&gt;Cryptopp -->
<g id="edge35" class="edge"><title>devcrypto&#45;&gt;Cryptopp</title>
<path fill="none" stroke="black" d="M348.487,-257.503C368.417,-246.518 396.718,-230.919 418.536,-218.893"/>
<polygon fill="black" stroke="black" points="420.379,-221.874 427.447,-213.982 417,-215.744 420.379,-221.874"/>
</g>
<!-- ethkey -->
<g id="node15" class="node"><title>ethkey</title>
<polygon fill="none" stroke="black" stroke-width="2" points="286,-434 232,-434 232,-398 286,-398 286,-434"/>
<text text-anchor="middle" x="259" y="-413" font-family="Courier,monospace" font-size="10.00">ethkey</text>
</g>
<!-- ethkey&#45;&gt;ethcore -->
<g id="edge36" class="edge"><title>ethkey&#45;&gt;ethcore</title>
<path fill="none" stroke="black" d="M244.169,-397.697C236.577,-388.84 227.228,-377.932 219.008,-368.343"/>
<polygon fill="black" stroke="black" points="221.598,-365.986 212.432,-360.671 216.283,-370.542 221.598,-365.986"/>
</g>
<!-- ethminer -->
<g id="node16" class="node"><title>ethminer</title>
<polygon fill="none" stroke="black" stroke-width="2" points="396.006,-650 331.994,-650 331.994,-614 396.006,-614 396.006,-650"/>
<text text-anchor="middle" x="364" y="-629" font-family="Courier,monospace" font-size="10.00">ethminer</text>
</g>
<!-- ethminer&#45;&gt;ethashseal -->
<g id="edge37" class="edge"><title>ethminer&#45;&gt;ethashseal</title>
<path fill="none" stroke="black" d="M331.624,-617.669C303.546,-606.107 262.838,-589.345 232.978,-577.05"/>
<polygon fill="black" stroke="black" points="234.274,-573.798 223.695,-573.227 231.609,-580.271 234.274,-573.798"/>
</g>
<!-- ethminer&#45;&gt;JsonRpc* -->
<g id="edge38" class="edge"><title>ethminer&#45;&gt;JsonRpc*</title>
<path fill="none" stroke="black" d="M385.011,-613.697C396.515,-604.223 410.87,-592.402 423.066,-582.357"/>
<polygon fill="black" stroke="black" points="425.609,-584.797 431.103,-575.738 421.159,-579.394 425.609,-584.797"/>
</g>
<!-- ethvm -->
<g id="node17" class="node"><title>ethvm</title>
<polygon fill="none" stroke="black" stroke-width="2" points="222,-650 168,-650 168,-614 222,-614 222,-650"/>
<text text-anchor="middle" x="195" y="-629" font-family="Courier,monospace" font-size="10.00">ethvm</text>
</g>
<!-- ethvm&#45;&gt;ethashseal -->
<g id="edge39" class="edge"><title>ethvm&#45;&gt;ethashseal</title>
<path fill="none" stroke="black" d="M194.753,-613.697C194.643,-605.983 194.51,-596.712 194.387,-588.112"/>
<polygon fill="black" stroke="black" points="197.887,-588.053 194.244,-578.104 190.888,-588.153 197.887,-588.053"/>
</g>
<!-- evmjit -->
<g id="node18" class="node"><title>evmjit</title>
<polygon fill="none" stroke="black" stroke-width="2" points="148,-362 94,-362 94,-326 148,-326 148,-362"/>
<text text-anchor="middle" x="121" y="-341" font-family="Courier,monospace" font-size="10.00">evmjit</text>
</g>
<!-- ethash -->
<g id="node19" class="node"><title>ethash</title>
<ellipse fill="none" stroke="black" cx="112" cy="-416" rx="30.0384" ry="18"/>
<text text-anchor="middle" x="112" y="-413" font-family="Courier,monospace" font-size="10.00">ethash</text>
</g>
<!-- ethash&#45;cl&#45;&gt;ethash -->
<g id="edge40" class="edge"><title>ethash&#45;cl&#45;&gt;ethash</title>
<path fill="none" stroke="black" d="M131.706,-470.055C128.736,-462.059 125.123,-452.331 121.806,-443.4"/>
<polygon fill="black" stroke="black" points="124.999,-441.945 118.236,-433.789 118.437,-444.382 124.999,-441.945"/>
</g>
<!-- OpenCL -->
<g id="node52" class="node"><title>OpenCL</title>
<ellipse fill="none" stroke="black" cx="442" cy="-416" rx="30.0384" ry="18"/>
<text text-anchor="middle" x="442" y="-413" font-family="Courier,monospace" font-size="10.00">OpenCL</text>
</g>
<!-- ethash&#45;cl&#45;&gt;OpenCL -->
<g id="edge41" class="edge"><title>ethash&#45;cl&#45;&gt;OpenCL</title>
<path fill="none" stroke="black" d="M167.811,-475.741C174.089,-473.63 180.715,-471.59 187,-470 283.479,-445.6 313.305,-464.601 408,-434 409.201,-433.612 410.412,-433.187 411.626,-432.733"/>
<polygon fill="black" stroke="black" points="413.006,-435.949 420.831,-428.806 410.26,-429.51 413.006,-435.949"/>
</g>
<!-- evm&#45;&gt;evmcore -->
<g id="edge42" class="edge"><title>evm&#45;&gt;evmcore</title>
<path fill="none" stroke="black" d="M165.497,-404.536C136.263,-390.208 87.3179,-365.816 85,-362 73.2391,-342.635 80.8691,-317.119 89.8902,-298.375"/>
<polygon fill="black" stroke="black" points="93.1232,-299.744 94.6391,-289.258 86.915,-296.51 93.1232,-299.744"/>
</g>
<!-- evm&#45;&gt;ethcore -->
<g id="edge43" class="edge"><title>evm&#45;&gt;ethcore</title>
<path fill="none" stroke="black" d="M189.905,-398.055C191.226,-390.346 192.824,-381.027 194.309,-372.364"/>
<polygon fill="black" stroke="black" points="197.798,-372.723 196.039,-362.275 190.899,-371.54 197.798,-372.723"/>
</g>
<!-- evm&#45;&gt;evmjit -->
<g id="edge44" class="edge"><title>evm&#45;&gt;evmjit</title>
<path fill="none" stroke="black" stroke-dasharray="1,5" d="M173.003,-400.155C164.621,-391.264 153.756,-379.742 144.127,-369.529"/>
<polygon fill="black" stroke="black" points="146.473,-366.915 137.066,-362.04 141.38,-371.717 146.473,-366.915"/>
</g>
<!-- testutils&#45;&gt;ethashseal -->
<g id="edge45" class="edge"><title>testutils&#45;&gt;ethashseal</title>
<path fill="none" stroke="black" d="M128.227,-615.811C139.705,-606.245 154.717,-593.736 167.5,-583.084"/>
<polygon fill="black" stroke="black" points="170.077,-585.492 175.519,-576.401 165.596,-580.114 170.077,-585.492"/>
</g>
<!-- devcore&#45;&gt;base -->
<g id="edge46" class="edge"><title>devcore&#45;&gt;base</title>
<path fill="none" stroke="black" d="M211.898,-188.691C217.53,-186.468 223.46,-184.144 229,-182 265.642,-167.822 307.829,-151.907 336.234,-141.25"/>
<polygon fill="black" stroke="black" points="337.54,-144.499 345.675,-137.711 335.083,-137.944 337.54,-144.499"/>
</g>
<!-- bench -->
<g id="node24" class="node"><title>bench</title>
<polygon fill="none" stroke="black" stroke-width="2" points="376,-362 322,-362 322,-326 376,-326 376,-362"/>
<text text-anchor="middle" x="349" y="-341" font-family="Courier,monospace" font-size="10.00">bench</text>
</g>
<!-- bench&#45;&gt;devcrypto -->
<g id="edge47" class="edge"><title>bench&#45;&gt;devcrypto</title>
<path fill="none" stroke="black" d="M342.82,-325.697C340.005,-317.813 336.609,-308.304 333.481,-299.546"/>
<polygon fill="black" stroke="black" points="336.768,-298.345 330.109,-290.104 330.176,-300.699 336.768,-298.345"/>
</g>
<!-- rlp -->
<g id="node25" class="node"><title>rlp</title>
<polygon fill="none" stroke="black" stroke-width="2" points="304,-362 250,-362 250,-326 304,-326 304,-362"/>
<text text-anchor="middle" x="277" y="-341" font-family="Courier,monospace" font-size="10.00">rlp</text>
</g>
<!-- rlp&#45;&gt;devcrypto -->
<g id="edge48" class="edge"><title>rlp&#45;&gt;devcrypto</title>
<path fill="none" stroke="black" d="M288.618,-325.697C294.221,-317.351 301.047,-307.185 307.204,-298.016"/>
<polygon fill="black" stroke="black" points="310.171,-299.876 312.839,-289.622 304.359,-295.973 310.171,-299.876"/>
</g>
<!-- testweb3core -->
<g id="node26" class="node"><title>testweb3core</title>
<polygon fill="none" stroke="black" stroke-width="2" points="396.009,-506 307.991,-506 307.991,-470 396.009,-470 396.009,-506"/>
<text text-anchor="middle" x="352" y="-485" font-family="Courier,monospace" font-size="10.00">testweb3core</text>
</g>
<!-- testweb3core&#45;&gt;p2p -->
<g id="edge49" class="edge"><title>testweb3core&#45;&gt;p2p</title>
<path fill="none" stroke="black" d="M352,-469.697C352,-461.983 352,-452.712 352,-444.112"/>
<polygon fill="black" stroke="black" points="355.5,-444.104 352,-434.104 348.5,-444.104 355.5,-444.104"/>
</g>
<!-- eth -->
<g id="node27" class="node"><title>eth</title>
<polygon fill="none" stroke="black" stroke-width="2" points="386,-794 332,-794 332,-758 386,-758 386,-794"/>
<text text-anchor="middle" x="359" y="-773" font-family="Courier,monospace" font-size="10.00">eth</text>
</g>
<!-- eth&#45;&gt;web3jsonrpc -->
<g id="edge56" class="edge"><title>eth&#45;&gt;web3jsonrpc</title>
<path fill="none" stroke="black" d="M356.528,-757.697C355.426,-749.983 354.102,-740.712 352.873,-732.112"/>
<polygon fill="black" stroke="black" points="356.323,-731.509 351.443,-722.104 349.393,-732.499 356.323,-731.509"/>
</g>
<!-- whisper&#45;&gt;p2p -->
<g id="edge57" class="edge"><title>whisper&#45;&gt;p2p</title>
<path fill="none" stroke="black" d="M287.661,-541.681C286.946,-523.04 287.94,-492.976 299,-470 305.235,-457.048 315.958,-445.405 326.135,-436.353"/>
<polygon fill="black" stroke="black" points="328.679,-438.786 334.083,-429.673 324.175,-433.427 328.679,-438.786"/>
</g>
<!-- testweb3 -->
<g id="node29" class="node"><title>testweb3</title>
<polygon fill="none" stroke="black" stroke-width="2" points="314.006,-794 249.994,-794 249.994,-758 314.006,-758 314.006,-794"/>
<text text-anchor="middle" x="282" y="-773" font-family="Courier,monospace" font-size="10.00">testweb3</text>
</g>
<!-- testweb3&#45;&gt;web3jsonrpc -->
<g id="edge58" class="edge"><title>testweb3&#45;&gt;web3jsonrpc</title>
<path fill="none" stroke="black" d="M298.562,-757.697C307.001,-748.879 317.387,-738.029 326.536,-728.47"/>
<polygon fill="black" stroke="black" points="329.161,-730.789 333.547,-721.145 324.104,-725.949 329.161,-730.789"/>
</g>
<!-- lllc -->
<g id="node30" class="node"><title>lllc</title>
<polygon fill="none" stroke="black" stroke-width="2" points="960,-794 906,-794 906,-758 960,-758 960,-794"/>
<text text-anchor="middle" x="933" y="-773" font-family="Courier,monospace" font-size="10.00">lllc</text>
</g>
<!-- lll -->
<g id="node31" class="node"><title>lll</title>
<ellipse fill="none" stroke="black" cx="917" cy="-704" rx="27" ry="18"/>
<text text-anchor="middle" x="917" y="-701" font-family="Courier,monospace" font-size="10.00">lll</text>
</g>
<!-- lllc&#45;&gt;lll -->
<g id="edge1" class="edge"><title>lllc&#45;&gt;lll</title>
<path fill="none" stroke="black" d="M929.045,-757.697C927.282,-749.983 925.163,-740.712 923.197,-732.112"/>
<polygon fill="black" stroke="black" points="926.55,-731.073 920.91,-722.104 919.726,-732.633 926.55,-731.073"/>
</g>
<!-- evmasm -->
<g id="node32" class="node"><title>evmasm</title>
<ellipse fill="none" stroke="black" cx="858" cy="-632" rx="30.0384" ry="18"/>
<text text-anchor="middle" x="858" y="-629" font-family="Courier,monospace" font-size="10.00">evmasm</text>
</g>
<!-- lll&#45;&gt;evmasm -->
<g id="edge2" class="edge"><title>lll&#45;&gt;evmasm</title>
<path fill="none" stroke="black" d="M904.198,-687.811C896.496,-678.673 886.53,-666.849 877.827,-656.524"/>
<polygon fill="black" stroke="black" points="880.307,-654.035 871.186,-648.644 874.954,-658.546 880.307,-654.035"/>
</g>
<!-- evmcore_solidity -->
<g id="node33" class="node"><title>evmcore_solidity</title>
<ellipse fill="none" stroke="black" cx="858" cy="-560" rx="64.5079" ry="18"/>
<text text-anchor="middle" x="858" y="-557" font-family="Courier,monospace" font-size="10.00">evmcore_solidity</text>
</g>
<!-- evmasm&#45;&gt;evmcore_solidity -->
<g id="edge3" class="edge"><title>evmasm&#45;&gt;evmcore_solidity</title>
<path fill="none" stroke="black" d="M858,-613.697C858,-605.983 858,-596.712 858,-588.112"/>
<polygon fill="black" stroke="black" points="861.5,-588.104 858,-578.104 854.5,-588.104 861.5,-588.104"/>
</g>
<!-- solidity -->
<g id="node34" class="node"><title>solidity</title>
<ellipse fill="none" stroke="black" cx="819" cy="-704" rx="36.433" ry="18"/>
<text text-anchor="middle" x="819" y="-701" font-family="Courier,monospace" font-size="10.00">solidity</text>
</g>
<!-- solidity&#45;&gt;evmasm -->
<g id="edge4" class="edge"><title>solidity&#45;&gt;evmasm</title>
<path fill="none" stroke="black" d="M828.242,-686.411C832.905,-678.042 838.662,-667.71 843.865,-658.37"/>
<polygon fill="black" stroke="black" points="847.014,-659.909 848.824,-649.47 840.899,-656.502 847.014,-659.909"/>
</g>
<!-- soljson -->
<g id="node35" class="node"><title>soljson</title>
<ellipse fill="none" stroke="black" cx="855" cy="-776" rx="33.2355" ry="18"/>
<text text-anchor="middle" x="855" y="-773" font-family="Courier,monospace" font-size="10.00">soljson</text>
</g>
<!-- soljson&#45;&gt;solidity -->
<g id="edge5" class="edge"><title>soljson&#45;&gt;solidity</title>
<path fill="none" stroke="black" d="M846.469,-758.411C842.271,-750.249 837.113,-740.22 832.405,-731.065"/>
<polygon fill="black" stroke="black" points="835.406,-729.248 827.72,-721.956 829.181,-732.45 835.406,-729.248"/>
</g>
<!-- solc -->
<g id="node36" class="node"><title>solc</title>
<polygon fill="none" stroke="black" stroke-width="2" points="804,-794 750,-794 750,-758 804,-758 804,-794"/>
<text text-anchor="middle" x="777" y="-773" font-family="Courier,monospace" font-size="10.00">solc</text>
</g>
<!-- solc&#45;&gt;solidity -->
<g id="edge53" class="edge"><title>solc&#45;&gt;solidity</title>
<path fill="none" stroke="black" d="M787.382,-757.697C792.338,-749.437 798.364,-739.394 803.82,-730.299"/>
<polygon fill="black" stroke="black" points="806.883,-731.998 809.027,-721.622 800.88,-728.396 806.883,-731.998"/>
</g>
<!-- soltest -->
<g id="node37" class="node"><title>soltest</title>
<polygon fill="none" stroke="black" stroke-width="2" points="1036.01,-794 977.995,-794 977.995,-758 1036.01,-758 1036.01,-794"/>
<text text-anchor="middle" x="1007" y="-773" font-family="Courier,monospace" font-size="10.00">soltest</text>
</g>
<!-- soltest&#45;&gt;ethereum -->
<g id="edge55" class="edge"><title>soltest&#45;&gt;ethereum</title>
<path fill="none" stroke="black" d="M1007.63,-757.97C1008.27,-712.743 1003.03,-589.305 931,-534 875.247,-491.193 368.521,-516.378 299,-506 290.505,-504.732 281.52,-502.816 273.007,-500.722"/>
<polygon fill="black" stroke="black" points="273.845,-497.323 263.288,-498.209 272.093,-504.1 273.845,-497.323"/>
</g>
<!-- soltest&#45;&gt;solidity -->
<g id="edge54" class="edge"><title>soltest&#45;&gt;solidity</title>
<path fill="none" stroke="black" d="M983.08,-757.771C978.536,-754.934 973.723,-752.204 969,-750 958.929,-745.299 900.525,-728.244 859.641,-716.535"/>
<polygon fill="black" stroke="black" points="860.5,-713.14 849.923,-713.758 858.576,-719.871 860.5,-713.14"/>
</g>
<!-- AlethZero -->
<g id="node38" class="node"><title>AlethZero</title>
<polygon fill="none" stroke="black" stroke-width="2" points="572.007,-868 501.993,-868 501.993,-832 572.007,-832 572.007,-868"/>
<text text-anchor="middle" x="537" y="-847" font-family="Courier,monospace" font-size="10.00">AlethZero</text>
</g>
<!-- AlethZero&#45;&gt;solidity -->
<g id="edge14" class="edge"><title>AlethZero&#45;&gt;solidity</title>
<path fill="none" stroke="black" stroke-dasharray="1,5" d="M572.367,-847.781C616.083,-845.612 687.252,-839.715 708,-824 736.706,-802.257 716.892,-776.75 741,-750 752.247,-737.52 767.796,-727.588 782.053,-720.265"/>
<polygon fill="black" stroke="black" points="783.715,-723.348 791.178,-715.828 780.654,-717.053 783.715,-723.348"/>
</g>
<!-- aleth -->
<g id="node39" class="node"><title>aleth</title>
<ellipse fill="none" stroke="black" cx="494" cy="-776" rx="27" ry="18"/>
<text text-anchor="middle" x="494" y="-773" font-family="Courier,monospace" font-size="10.00">aleth</text>
</g>
<!-- AlethZero&#45;&gt;aleth -->
<g id="edge15" class="edge"><title>AlethZero&#45;&gt;aleth</title>
<path fill="none" stroke="black" d="M526.81,-831.937C521.409,-822.895 514.679,-811.625 508.721,-801.65"/>
<polygon fill="black" stroke="black" points="511.66,-799.745 503.528,-792.954 505.651,-803.334 511.66,-799.745"/>
</g>
<!-- aleth&#45;&gt;web3jsonrpc -->
<g id="edge17" class="edge"><title>aleth&#45;&gt;web3jsonrpc</title>
<path fill="none" stroke="black" d="M472.605,-764.671C449.984,-753.751 413.859,-736.311 386.491,-723.099"/>
<polygon fill="black" stroke="black" points="387.74,-719.816 377.213,-718.62 384.697,-726.119 387.74,-719.816"/>
</g>
<!-- Qt* -->
<g id="node47" class="node"><title>Qt*</title>
<ellipse fill="none" stroke="black" cx="558" cy="-704" rx="27" ry="18"/>
<text text-anchor="middle" x="558" y="-701" font-family="Courier,monospace" font-size="10.00">Qt*</text>
</g>
<!-- aleth&#45;&gt;Qt* -->
<g id="edge16" class="edge"><title>aleth&#45;&gt;Qt*</title>
<path fill="none" stroke="black" d="M507.573,-760.155C516.312,-750.596 527.834,-737.994 537.658,-727.249"/>
<polygon fill="black" stroke="black" points="540.282,-729.566 544.447,-719.824 535.116,-724.842 540.282,-729.566"/>
</g>
<!-- AlethOne -->
<g id="node40" class="node"><title>AlethOne</title>
<polygon fill="none" stroke="black" stroke-width="2" points="484.006,-868 419.994,-868 419.994,-832 484.006,-832 484.006,-868"/>
<text text-anchor="middle" x="452" y="-847" font-family="Courier,monospace" font-size="10.00">AlethOne</text>
</g>
<!-- AlethOne&#45;&gt;aleth -->
<g id="edge18" class="edge"><title>AlethOne&#45;&gt;aleth</title>
<path fill="none" stroke="black" d="M461.953,-831.937C467.228,-822.895 473.802,-811.625 479.621,-801.65"/>
<polygon fill="black" stroke="black" points="482.678,-803.355 484.693,-792.954 476.632,-799.828 482.678,-803.355"/>
</g>
<!-- Mix -->
<g id="node41" class="node"><title>Mix</title>
<ellipse fill="none" stroke="black" cx="623" cy="-776" rx="27" ry="18"/>
<text text-anchor="middle" x="623" y="-773" font-family="Courier,monospace" font-size="10.00">Mix</text>
</g>
<!-- Mix&#45;&gt;web3jsonrpc -->
<g id="edge52" class="edge"><title>Mix&#45;&gt;web3jsonrpc</title>
<path fill="none" stroke="black" d="M605.912,-762.044C599.358,-757.626 591.619,-753.04 584,-750 525.467,-726.647 453.779,-715.169 405.084,-709.693"/>
<polygon fill="black" stroke="black" points="405.372,-706.204 395.055,-708.613 404.623,-713.163 405.372,-706.204"/>
</g>
<!-- Mix&#45;&gt;solidity -->
<g id="edge50" class="edge"><title>Mix&#45;&gt;solidity</title>
<path fill="none" stroke="black" stroke-dasharray="1,5" d="M646.253,-766.695C679.439,-754.843 740.779,-732.936 780.723,-718.67"/>
<polygon fill="black" stroke="black" points="782.147,-721.879 790.387,-715.219 779.792,-715.286 782.147,-721.879"/>
</g>
<!-- Mix&#45;&gt;Qt* -->
<g id="edge51" class="edge"><title>Mix&#45;&gt;Qt*</title>
<path fill="none" stroke="black" d="M609.215,-760.155C600.339,-750.596 588.637,-737.994 578.66,-727.249"/>
<polygon fill="black" stroke="black" points="581.134,-724.77 571.765,-719.824 576.005,-729.533 581.134,-724.77"/>
</g>
</g>
</svg>
