<?xml version="1.0" encoding="UTF-8" standalone="no"?>
<!DOCTYPE svg PUBLIC "-//W3C//DTD SVG 1.1//EN"
 "http://www.w3.org/Graphics/SVG/1.1/DTD/svg11.dtd">
<!-- Generated by graphviz version 2.36.0 (20140111.2315)
 -->
<!-- Title: webthree Pages: 1 -->
<svg width="888pt" height="980pt"
 viewBox="0.00 0.00 888.00 980.00" xmlns="http://www.w3.org/2000/svg" xmlns:xlink="http://www.w3.org/1999/xlink">
<g id="graph0" class="graph" transform="scale(1 1) rotate(0) translate(4 976)">
<title>webthree</title>
<polygon fill="white" stroke="none" points="-4,4 -4,-976 884,-976 884,4 -4,4"/>
<text text-anchor="middle" x="440" y="-6.8" font-family="Times,serif" font-size="14.00">cpp&#45;ethereum dependencies</text>
<g id="clust1" class="cluster"><title>cluster_cpp_ethereum</title>
<polygon fill="Honeydew" stroke="black" points="88,-86 88,-810 474,-810 474,-86 88,-86"/>
<text text-anchor="start" x="201.898" y="-794.8" font-family="Times,serif" font-size="14.00">cpp_ethereum dependencies</text>
</g>
<g id="clust3" class="cluster"><title>cluster_alethzero</title>
<polygon fill="LightGray" stroke="black" points="596,-818 596,-964 764,-964 764,-818 596,-818"/>
<text text-anchor="start" x="614.898" y="-948.8" font-family="Times,serif" font-size="14.00">alethzero dependencies</text>
</g>
<g id="clust7" class="cluster"><title>cluster_mix</title>
<polygon fill="LightGray" stroke="black" points="690,-736 690,-810 806,-810 806,-736 690,-736"/>
<text text-anchor="start" x="697.657" y="-794.8" font-family="Times,serif" font-size="14.00">mix dependencies</text>
</g>
<g id="clust9" class="cluster"><title>cluster_solidity</title>
<polygon fill="WhiteSmoke" stroke="black" points="566,-446 566,-592 796,-592 796,-446 566,-446"/>
<text text-anchor="start" x="620.543" y="-576.8" font-family="Times,serif" font-size="14.00">solidity dependencies</text>
</g>
<!-- buildinfo -->
<g id="node1" class="node"><title>buildinfo</title>
<ellipse fill="none" stroke="black" cx="426" cy="-256" rx="40.13" ry="18"/>
<text text-anchor="middle" x="426" y="-253" font-family="Courier,monospace" font-size="10.00">buildinfo</text>
</g>
<!-- base -->
<g id="node2" class="node"><title>base</title>
<ellipse fill="none" stroke="black" cx="240" cy="-112" rx="27" ry="18"/>
<text text-anchor="middle" x="240" y="-109" font-family="Courier,monospace" font-size="10.00">base</text>
</g>
<!-- boost -->
<g id="node41" class="node"><title>boost</title>
<ellipse fill="none" stroke="black" cx="120" cy="-40" rx="27" ry="18"/>
<text text-anchor="middle" x="120" y="-37" font-family="Courier,monospace" font-size="10.00">boost</text>
</g>
<!-- base&#45;&gt;boost -->
<g id="edge2" class="edge"><title>base&#45;&gt;boost</title>
<path fill="none" stroke="black" d="M220.184,-99.4409C200.73,-88.0923 170.843,-70.6584 148.772,-57.7838"/>
<polygon fill="black" stroke="black" points="150.246,-54.5918 139.845,-52.5762 146.719,-60.6382 150.246,-54.5918"/>
</g>
<!-- Jsoncpp -->
<g id="node42" class="node"><title>Jsoncpp</title>
<ellipse fill="none" stroke="black" cx="198" cy="-40" rx="33.2355" ry="18"/>
<text text-anchor="middle" x="198" y="-37" font-family="Courier,monospace" font-size="10.00">Jsoncpp</text>
</g>
<!-- base&#45;&gt;Jsoncpp -->
<g id="edge3" class="edge"><title>base&#45;&gt;Jsoncpp</title>
<path fill="none" stroke="black" d="M230.47,-95.1159C225.334,-86.5567 218.878,-75.7974 213.079,-66.1316"/>
<polygon fill="black" stroke="black" points="215.93,-64.0812 207.784,-57.307 209.928,-67.6827 215.93,-64.0812"/>
</g>
<!-- LevelDB -->
<g id="node43" class="node"><title>LevelDB</title>
<ellipse fill="none" stroke="black" cx="283" cy="-40" rx="33.2355" ry="18"/>
<text text-anchor="middle" x="283" y="-37" font-family="Courier,monospace" font-size="10.00">LevelDB</text>
</g>
<!-- base&#45;&gt;LevelDB -->
<g id="edge4" class="edge"><title>base&#45;&gt;LevelDB</title>
<path fill="none" stroke="black" d="M249.757,-95.1159C255.069,-86.4685 261.761,-75.5754 267.745,-65.833"/>
<polygon fill="black" stroke="black" points="270.731,-67.6598 272.983,-57.307 264.766,-63.9958 270.731,-67.6598"/>
</g>
<!-- pthreads -->
<g id="node44" class="node"><title>pthreads</title>
<ellipse fill="none" stroke="black" cx="371" cy="-40" rx="36.433" ry="18"/>
<text text-anchor="middle" x="371" y="-37" font-family="Courier,monospace" font-size="10.00">pthreads</text>
</g>
<!-- base&#45;&gt;pthreads -->
<g id="edge5" class="edge"><title>base&#45;&gt;pthreads</title>
<path fill="none" stroke="black" d="M260.469,-100.062C281.27,-88.9471 313.816,-71.5561 338.215,-58.519"/>
<polygon fill="black" stroke="black" points="339.955,-61.5575 347.125,-53.7577 336.656,-55.3837 339.955,-61.5575"/>
</g>
<!-- json_spirit -->
<g id="node3" class="node"><title>json_spirit</title>
<ellipse fill="none" stroke="black" cx="419" cy="-762" rx="47.0244" ry="18"/>
<text text-anchor="middle" x="419" y="-759" font-family="Courier,monospace" font-size="10.00">json_spirit</text>
</g>
<!-- scrypt -->
<g id="node4" class="node"><title>scrypt</title>
<ellipse fill="none" stroke="black" cx="327" cy="-184" rx="30.0384" ry="18"/>
<text text-anchor="middle" x="327" y="-181" font-family="Courier,monospace" font-size="10.00">scrypt</text>
</g>
<!-- secp256k1 -->
<g id="node5" class="node"><title>secp256k1</title>
<ellipse fill="none" stroke="black" cx="419" cy="-184" rx="40.13" ry="18"/>
<text text-anchor="middle" x="419" y="-181" font-family="Courier,monospace" font-size="10.00">secp256k1</text>
</g>
<!-- gmp -->
<g id="node45" class="node"><title>gmp</title>
<ellipse fill="none" stroke="black" cx="509" cy="-112" rx="27" ry="18"/>
<text text-anchor="middle" x="509" y="-109" font-family="Courier,monospace" font-size="10.00">gmp</text>
</g>
<!-- secp256k1&#45;&gt;gmp -->
<g id="edge6" class="edge"><title>secp256k1&#45;&gt;gmp</title>
<path fill="none" stroke="black" d="M438.087,-168.155C451.458,-157.755 469.46,-143.753 483.98,-132.46"/>
<polygon fill="black" stroke="black" points="486.32,-135.074 492.065,-126.172 482.023,-129.548 486.32,-135.074"/>
</g>
<!-- ethereum -->
<g id="node6" class="node"><title>ethereum</title>
<ellipse fill="none" stroke="black" cx="259" cy="-472" rx="36.433" ry="18"/>
<text text-anchor="middle" x="259" y="-469" font-family="Courier,monospace" font-size="10.00">ethereum</text>
</g>
<!-- p2p -->
<g id="node12" class="node"><title>p2p</title>
<ellipse fill="none" stroke="black" cx="125" cy="-400" rx="27" ry="18"/>
<text text-anchor="middle" x="125" y="-397" font-family="Courier,monospace" font-size="10.00">p2p</text>
</g>
<!-- ethereum&#45;&gt;p2p -->
<g id="edge13" class="edge"><title>ethereum&#45;&gt;p2p</title>
<path fill="none" stroke="black" d="M234.734,-458.324C212.229,-446.567 178.685,-429.044 154.612,-416.469"/>
<polygon fill="black" stroke="black" points="156.058,-413.276 145.574,-411.748 152.817,-419.48 156.058,-413.276"/>
</g>
<!-- evm -->
<g id="node20" class="node"><title>evm</title>
<ellipse fill="none" stroke="black" cx="197" cy="-400" rx="27" ry="18"/>
<text text-anchor="middle" x="197" y="-397" font-family="Courier,monospace" font-size="10.00">evm</text>
</g>
<!-- ethereum&#45;&gt;evm -->
<g id="edge14" class="edge"><title>ethereum&#45;&gt;evm</title>
<path fill="none" stroke="black" d="M244.931,-455.116C236.618,-445.73 225.961,-433.698 216.808,-423.364"/>
<polygon fill="black" stroke="black" points="219.416,-421.029 210.165,-415.864 214.176,-425.67 219.416,-421.029"/>
</g>
<!-- lll -->
<g id="node23" class="node"><title>lll</title>
<ellipse fill="none" stroke="black" cx="269" cy="-400" rx="27" ry="18"/>
<text text-anchor="middle" x="269" y="-397" font-family="Courier,monospace" font-size="10.00">lll</text>
</g>
<!-- ethereum&#45;&gt;lll -->
<g id="edge15" class="edge"><title>ethereum&#45;&gt;lll</title>
<path fill="none" stroke="black" d="M261.472,-453.697C262.574,-445.983 263.898,-436.712 265.127,-428.112"/>
<polygon fill="black" stroke="black" points="268.607,-428.499 266.557,-418.104 261.677,-427.509 268.607,-428.499"/>
</g>
<!-- ethashseal -->
<g id="node7" class="node"><title>ethashseal</title>
<ellipse fill="none" stroke="black" cx="272" cy="-544" rx="43.3279" ry="18"/>
<text text-anchor="middle" x="272" y="-541" font-family="Courier,monospace" font-size="10.00">ethashseal</text>
</g>
<!-- ethashseal&#45;&gt;ethereum -->
<g id="edge16" class="edge"><title>ethashseal&#45;&gt;ethereum</title>
<path fill="none" stroke="black" d="M268.787,-525.697C267.354,-517.983 265.632,-508.712 264.035,-500.112"/>
<polygon fill="black" stroke="black" points="267.444,-499.297 262.177,-490.104 260.561,-500.575 267.444,-499.297"/>
</g>
<!-- ethash&#45;cl -->
<g id="node19" class="node"><title>ethash&#45;cl</title>
<ellipse fill="none" stroke="black" cx="426" cy="-472" rx="40.13" ry="18"/>
<text text-anchor="middle" x="426" y="-469" font-family="Courier,monospace" font-size="10.00">ethash&#45;cl</text>
</g>
<!-- ethashseal&#45;&gt;ethash&#45;cl -->
<g id="edge17" class="edge"><title>ethashseal&#45;&gt;ethash&#45;cl</title>
<path fill="none" stroke="black" stroke-dasharray="1,5" d="M300.246,-530.161C325.335,-518.757 362.155,-502.02 389.476,-489.602"/>
<polygon fill="black" stroke="black" points="391.054,-492.729 398.709,-485.405 388.157,-486.357 391.054,-492.729"/>
</g>
<!-- Cpuid -->
<g id="node47" class="node"><title>Cpuid</title>
<ellipse fill="none" stroke="black" cx="51" cy="-472" rx="27" ry="18"/>
<text text-anchor="middle" x="51" y="-469" font-family="Courier,monospace" font-size="10.00">Cpuid</text>
</g>
<!-- ethashseal&#45;&gt;Cpuid -->
<g id="edge18" class="edge"><title>ethashseal&#45;&gt;Cpuid</title>
<path fill="none" stroke="black" stroke-dasharray="1,5" d="M239,-532.135C232.394,-530.039 225.49,-527.905 219,-526 159.417,-508.512 141.936,-512.348 84,-490 82.8162,-489.543 81.6193,-489.056 80.4184,-488.547"/>
<polygon fill="black" stroke="black" points="81.8262,-485.341 71.2816,-484.311 78.8819,-491.692 81.8262,-485.341"/>
</g>
<!-- web3jsonrpc -->
<g id="node8" class="node"><title>web3jsonrpc</title>
<ellipse fill="none" stroke="black" cx="392" cy="-690" rx="47.0244" ry="18"/>
<text text-anchor="middle" x="392" y="-687" font-family="Courier,monospace" font-size="10.00">web3jsonrpc</text>
</g>
<!-- webthree -->
<g id="node10" class="node"><title>webthree</title>
<ellipse fill="none" stroke="black" cx="177" cy="-618" rx="36.433" ry="18"/>
<text text-anchor="middle" x="177" y="-615" font-family="Courier,monospace" font-size="10.00">webthree</text>
</g>
<!-- web3jsonrpc&#45;&gt;webthree -->
<g id="edge19" class="edge"><title>web3jsonrpc&#45;&gt;webthree</title>
<path fill="none" stroke="black" d="M355.895,-678.25C321.561,-667.892 268.542,-651.546 223,-636 220.281,-635.072 217.479,-634.093 214.663,-633.093"/>
<polygon fill="black" stroke="black" points="215.734,-629.758 205.14,-629.653 213.356,-636.342 215.734,-629.758"/>
</g>
<!-- JsonRpc* -->
<g id="node48" class="node"><title>JsonRpc*</title>
<ellipse fill="none" stroke="black" cx="519" cy="-544" rx="36.433" ry="18"/>
<text text-anchor="middle" x="519" y="-541" font-family="Courier,monospace" font-size="10.00">JsonRpc*</text>
</g>
<!-- web3jsonrpc&#45;&gt;JsonRpc* -->
<g id="edge20" class="edge"><title>web3jsonrpc&#45;&gt;JsonRpc*</title>
<path fill="none" stroke="black" d="M421.005,-675.616C438.411,-666.434 460.01,-652.871 475,-636 491.675,-617.233 503.454,-591.022 510.602,-571.548"/>
<polygon fill="black" stroke="black" points="513.925,-572.648 513.918,-562.054 507.316,-570.34 513.925,-572.648"/>
</g>
<!-- natspec -->
<g id="node9" class="node"><title>natspec</title>
<ellipse fill="none" stroke="black" cx="320" cy="-762" rx="33.2355" ry="18"/>
<text text-anchor="middle" x="320" y="-759" font-family="Courier,monospace" font-size="10.00">natspec</text>
</g>
<!-- webthree&#45;&gt;ethashseal -->
<g id="edge22" class="edge"><title>webthree&#45;&gt;ethashseal</title>
<path fill="none" stroke="black" d="M200.608,-604.005C206.745,-600.344 213.245,-596.206 219,-592 228.983,-584.703 239.3,-575.888 248.149,-567.872"/>
<polygon fill="black" stroke="black" points="250.522,-570.445 255.501,-561.093 245.777,-565.298 250.522,-570.445"/>
</g>
<!-- whisper -->
<g id="node31" class="node"><title>whisper</title>
<ellipse fill="none" stroke="black" cx="177" cy="-544" rx="33.2355" ry="18"/>
<text text-anchor="middle" x="177" y="-541" font-family="Courier,monospace" font-size="10.00">whisper</text>
</g>
<!-- webthree&#45;&gt;whisper -->
<g id="edge23" class="edge"><title>webthree&#45;&gt;whisper</title>
<path fill="none" stroke="black" d="M177,-599.937C177,-591.807 177,-581.876 177,-572.705"/>
<polygon fill="black" stroke="black" points="180.5,-572.441 177,-562.441 173.5,-572.441 180.5,-572.441"/>
</g>
<!-- ethcore -->
<g id="node11" class="node"><title>ethcore</title>
<ellipse fill="none" stroke="black" cx="402" cy="-328" rx="33.2355" ry="18"/>
<text text-anchor="middle" x="402" y="-325" font-family="Courier,monospace" font-size="10.00">ethcore</text>
</g>
<!-- ethcore&#45;&gt;buildinfo -->
<g id="edge24" class="edge"><title>ethcore&#45;&gt;buildinfo</title>
<path fill="none" stroke="black" d="M407.81,-310.055C410.511,-302.176 413.789,-292.617 416.813,-283.794"/>
<polygon fill="black" stroke="black" points="420.145,-284.87 420.077,-274.275 413.523,-282.6 420.145,-284.87"/>
</g>
<!-- devcrypto -->
<g id="node13" class="node"><title>devcrypto</title>
<ellipse fill="none" stroke="black" cx="327" cy="-256" rx="40.13" ry="18"/>
<text text-anchor="middle" x="327" y="-253" font-family="Courier,monospace" font-size="10.00">devcrypto</text>
</g>
<!-- ethcore&#45;&gt;devcrypto -->
<g id="edge25" class="edge"><title>ethcore&#45;&gt;devcrypto</title>
<path fill="none" stroke="black" d="M386.094,-312.155C375.963,-302.699 362.641,-290.265 351.211,-279.597"/>
<polygon fill="black" stroke="black" points="353.361,-276.816 343.662,-272.552 348.585,-281.933 353.361,-276.816"/>
</g>
<!-- p2p&#45;&gt;devcrypto -->
<g id="edge26" class="edge"><title>p2p&#45;&gt;devcrypto</title>
<path fill="none" stroke="black" d="M122.378,-381.956C120.357,-362.138 120.378,-329.644 138,-310 180.614,-262.497 215.859,-292.284 277,-274 280.162,-273.054 283.424,-272.038 286.695,-270.991"/>
<polygon fill="black" stroke="black" points="288.033,-274.235 296.442,-267.791 285.85,-267.584 288.033,-274.235"/>
</g>
<!-- Miniupnpc -->
<g id="node49" class="node"><title>Miniupnpc</title>
<ellipse fill="none" stroke="black" cx="40" cy="-328" rx="40.13" ry="18"/>
<text text-anchor="middle" x="40" y="-325" font-family="Courier,monospace" font-size="10.00">Miniupnpc</text>
</g>
<!-- p2p&#45;&gt;Miniupnpc -->
<g id="edge27" class="edge"><title>p2p&#45;&gt;Miniupnpc</title>
<path fill="none" stroke="black" stroke-dasharray="1,5" d="M108.611,-385.503C96.5936,-375.606 80.0283,-361.964 66.1854,-350.564"/>
<polygon fill="black" stroke="black" points="68.3488,-347.812 58.4045,-344.157 63.8988,-353.215 68.3488,-347.812"/>
</g>
<!-- devcrypto&#45;&gt;scrypt -->
<g id="edge28" class="edge"><title>devcrypto&#45;&gt;scrypt</title>
<path fill="none" stroke="black" d="M327,-237.697C327,-229.983 327,-220.712 327,-212.112"/>
<polygon fill="black" stroke="black" points="330.5,-212.104 327,-202.104 323.5,-212.104 330.5,-212.104"/>
</g>
<!-- devcrypto&#45;&gt;secp256k1 -->
<g id="edge29" class="edge"><title>devcrypto&#45;&gt;secp256k1</title>
<path fill="none" stroke="black" d="M346.511,-240.155C359.562,-230.225 376.929,-217.011 391.392,-206.006"/>
<polygon fill="black" stroke="black" points="393.678,-208.664 399.517,-199.824 389.44,-203.094 393.678,-208.664"/>
</g>
<!-- devcore -->
<g id="node27" class="node"><title>devcore</title>
<ellipse fill="none" stroke="black" cx="240" cy="-184" rx="33.2355" ry="18"/>
<text text-anchor="middle" x="240" y="-181" font-family="Courier,monospace" font-size="10.00">devcore</text>
</g>
<!-- devcrypto&#45;&gt;devcore -->
<g id="edge30" class="edge"><title>devcrypto&#45;&gt;devcore</title>
<path fill="none" stroke="black" d="M308.122,-239.811C295.789,-229.888 279.519,-216.797 265.972,-205.897"/>
<polygon fill="black" stroke="black" points="267.934,-202.984 257.949,-199.442 263.546,-208.437 267.934,-202.984"/>
</g>
<!-- Cryptopp -->
<g id="node50" class="node"><title>Cryptopp</title>
<ellipse fill="none" stroke="black" cx="519" cy="-184" rx="36.433" ry="18"/>
<text text-anchor="middle" x="519" y="-181" font-family="Courier,monospace" font-size="10.00">Cryptopp</text>
</g>
<!-- devcrypto&#45;&gt;Cryptopp -->
<g id="edge31" class="edge"><title>devcrypto&#45;&gt;Cryptopp</title>
<path fill="none" stroke="black" d="M357.895,-244.383C395.191,-231.527 455.683,-210.536 478,-202 479.583,-201.394 481.197,-200.767 482.825,-200.127"/>
<polygon fill="black" stroke="black" points="484.204,-203.345 492.179,-196.371 481.595,-196.849 484.204,-203.345"/>
</g>
<!-- ethkey -->
<g id="node14" class="node"><title>ethkey</title>
<polygon fill="none" stroke="black" stroke-width="2" points="466,-418 412,-418 412,-382 466,-382 466,-418"/>
<text text-anchor="middle" x="439" y="-397" font-family="Courier,monospace" font-size="10.00">ethkey</text>
</g>
<!-- ethkey&#45;&gt;ethcore -->
<g id="edge32" class="edge"><title>ethkey&#45;&gt;ethcore</title>
<path fill="none" stroke="black" d="M429.854,-381.697C425.534,-373.523 420.29,-363.603 415.523,-354.584"/>
<polygon fill="black" stroke="black" points="418.554,-352.828 410.786,-345.622 412.365,-356.099 418.554,-352.828"/>
</g>
<!-- ethminer -->
<g id="node15" class="node"><title>ethminer</title>
<polygon fill="none" stroke="black" stroke-width="2" points="466.006,-636 401.994,-636 401.994,-600 466.006,-600 466.006,-636"/>
<text text-anchor="middle" x="434" y="-615" font-family="Courier,monospace" font-size="10.00">ethminer</text>
</g>
<!-- ethminer&#45;&gt;ethashseal -->
<g id="edge33" class="edge"><title>ethminer&#45;&gt;ethashseal</title>
<path fill="none" stroke="black" d="M401.994,-602.775C375.516,-591.007 337.851,-574.267 309.874,-561.833"/>
<polygon fill="black" stroke="black" points="310.976,-558.493 300.417,-557.63 308.133,-564.889 310.976,-558.493"/>
</g>
<!-- ethminer&#45;&gt;JsonRpc* -->
<g id="edge34" class="edge"><title>ethminer&#45;&gt;JsonRpc*</title>
<path fill="none" stroke="black" d="M466.09,-600.475C470.244,-597.85 474.326,-595.002 478,-592 486.005,-585.459 493.741,-577.26 500.296,-569.55"/>
<polygon fill="black" stroke="black" points="503.278,-571.432 506.902,-561.476 497.861,-566.999 503.278,-571.432"/>
</g>
<!-- ethvm -->
<g id="node16" class="node"><title>ethvm</title>
<polygon fill="none" stroke="black" stroke-width="2" points="384,-636 330,-636 330,-600 384,-600 384,-636"/>
<text text-anchor="middle" x="357" y="-615" font-family="Courier,monospace" font-size="10.00">ethvm</text>
</g>
<!-- ethvm&#45;&gt;ethashseal -->
<g id="edge35" class="edge"><title>ethvm&#45;&gt;ethashseal</title>
<path fill="none" stroke="black" d="M336.856,-599.937C325.258,-590.113 310.554,-577.658 298.081,-567.092"/>
<polygon fill="black" stroke="black" points="300.153,-564.261 290.261,-560.468 295.629,-569.602 300.153,-564.261"/>
</g>
<!-- evmjit -->
<g id="node17" class="node"><title>evmjit</title>
<polygon fill="none" stroke="black" stroke-width="2" points="201,-346 147,-346 147,-310 201,-310 201,-346"/>
<text text-anchor="middle" x="174" y="-325" font-family="Courier,monospace" font-size="10.00">evmjit</text>
</g>
<!-- ethash -->
<g id="node18" class="node"><title>ethash</title>
<ellipse fill="none" stroke="black" cx="364" cy="-400" rx="30.0384" ry="18"/>
<text text-anchor="middle" x="364" y="-397" font-family="Courier,monospace" font-size="10.00">ethash</text>
</g>
<!-- ethash&#45;cl&#45;&gt;ethash -->
<g id="edge36" class="edge"><title>ethash&#45;cl&#45;&gt;ethash</title>
<path fill="none" stroke="black" d="M411.931,-455.116C403.812,-445.949 393.458,-434.259 384.452,-424.091"/>
<polygon fill="black" stroke="black" points="386.837,-421.505 377.587,-416.34 381.597,-426.147 386.837,-421.505"/>
</g>
<!-- OpenCL -->
<g id="node51" class="node"><title>OpenCL</title>
<ellipse fill="none" stroke="black" cx="514" cy="-400" rx="30.0384" ry="18"/>
<text text-anchor="middle" x="514" y="-397" font-family="Courier,monospace" font-size="10.00">OpenCL</text>
</g>
<!-- ethash&#45;cl&#45;&gt;OpenCL -->
<g id="edge37" class="edge"><title>ethash&#45;cl&#45;&gt;OpenCL</title>
<path fill="none" stroke="black" d="M445.095,-455.811C457.821,-445.688 474.691,-432.269 488.553,-421.242"/>
<polygon fill="black" stroke="black" points="491.085,-423.7 496.732,-414.736 486.727,-418.222 491.085,-423.7"/>
</g>
<!-- evm&#45;&gt;ethcore -->
<g id="edge38" class="edge"><title>evm&#45;&gt;ethcore</title>
<path fill="none" stroke="black" d="M218.07,-388.34C222.91,-386.092 228.081,-383.844 233,-382 287.934,-361.404 304.505,-365.034 360,-346 362.26,-345.225 364.575,-344.394 366.9,-343.532"/>
<polygon fill="black" stroke="black" points="368.326,-346.734 376.401,-339.874 365.811,-340.201 368.326,-346.734"/>
</g>
<!-- evm&#45;&gt;evmjit -->
<g id="edge39" class="edge"><title>evm&#45;&gt;evmjit</title>
<path fill="none" stroke="black" stroke-dasharray="1,5" d="M191.432,-382.055C188.844,-374.176 185.703,-364.617 182.804,-355.794"/>
<polygon fill="black" stroke="black" points="186.123,-354.683 179.676,-346.275 179.473,-356.868 186.123,-354.683"/>
</g>
<!-- evmcore -->
<g id="node22" class="node"><title>evmcore</title>
<ellipse fill="none" stroke="black" cx="235" cy="-256" rx="33.2355" ry="18"/>
<text text-anchor="middle" x="235" y="-253" font-family="Courier,monospace" font-size="10.00">evmcore</text>
</g>
<!-- evm&#45;&gt;evmcore -->
<g id="edge40" class="edge"><title>evm&#45;&gt;evmcore</title>
<path fill="none" stroke="black" d="M177.349,-387.648C163.489,-378.413 146.019,-363.983 138,-346 131.484,-331.387 129.838,-323.761 138,-310 150.424,-289.055 174.366,-275.851 195.354,-267.861"/>
<polygon fill="black" stroke="black" points="196.777,-271.071 205.046,-264.447 194.452,-264.469 196.777,-271.071"/>
</g>
<!-- evmasm -->
<g id="node21" class="node"><title>evmasm</title>
<ellipse fill="none" stroke="black" cx="249" cy="-328" rx="30.0384" ry="18"/>
<text text-anchor="middle" x="249" y="-325" font-family="Courier,monospace" font-size="10.00">evmasm</text>
</g>
<!-- evmasm&#45;&gt;evmcore -->
<g id="edge41" class="edge"><title>evmasm&#45;&gt;evmcore</title>
<path fill="none" stroke="black" d="M245.611,-310.055C244.069,-302.346 242.205,-293.027 240.473,-284.364"/>
<polygon fill="black" stroke="black" points="243.848,-283.395 238.455,-274.275 236.984,-284.768 243.848,-283.395"/>
</g>
<!-- evmcore&#45;&gt;devcore -->
<g id="edge42" class="edge"><title>evmcore&#45;&gt;devcore</title>
<path fill="none" stroke="black" d="M236.236,-237.697C236.787,-229.983 237.449,-220.712 238.063,-212.112"/>
<polygon fill="black" stroke="black" points="241.557,-212.328 238.778,-202.104 234.575,-211.83 241.557,-212.328"/>
</g>
<!-- lll&#45;&gt;evmasm -->
<g id="edge43" class="edge"><title>lll&#45;&gt;evmasm</title>
<path fill="none" stroke="black" d="M264.159,-382.055C261.898,-374.145 259.154,-364.54 256.625,-355.688"/>
<polygon fill="black" stroke="black" points="259.909,-354.443 253.797,-345.789 253.179,-356.366 259.909,-354.443"/>
</g>
<!-- testutils -->
<g id="node24" class="node"><title>testutils</title>
<ellipse fill="none" stroke="black" cx="272" cy="-618" rx="40.13" ry="18"/>
<text text-anchor="middle" x="272" y="-615" font-family="Courier,monospace" font-size="10.00">testutils</text>
</g>
<!-- testutils&#45;&gt;ethashseal -->
<g id="edge44" class="edge"><title>testutils&#45;&gt;ethashseal</title>
<path fill="none" stroke="black" d="M272,-599.937C272,-591.807 272,-581.876 272,-572.705"/>
<polygon fill="black" stroke="black" points="275.5,-572.441 272,-562.441 268.5,-572.441 275.5,-572.441"/>
</g>
<!-- lllc -->
<g id="node25" class="node"><title>lllc</title>
<polygon fill="none" stroke="black" stroke-width="2" points="368,-490 314,-490 314,-454 368,-454 368,-490"/>
<text text-anchor="middle" x="341" y="-469" font-family="Courier,monospace" font-size="10.00">lllc</text>
</g>
<!-- lllc&#45;&gt;buildinfo -->
<g id="edge45" class="edge"><title>lllc&#45;&gt;buildinfo</title>
<path fill="none" stroke="black" d="M330.877,-453.842C320.944,-434.512 309.374,-403.052 325,-382 357.933,-337.63 411.067,-390.37 444,-346 457.584,-327.699 450.084,-301.684 440.982,-282.504"/>
<polygon fill="black" stroke="black" points="444.008,-280.734 436.325,-273.438 437.781,-283.933 444.008,-280.734"/>
</g>
<!-- lllc&#45;&gt;lll -->
<g id="edge46" class="edge"><title>lllc&#45;&gt;lll</title>
<path fill="none" stroke="black" d="M323.202,-453.697C313.512,-444.276 301.435,-432.534 291.142,-422.527"/>
<polygon fill="black" stroke="black" points="293.297,-419.74 283.687,-415.279 288.417,-424.759 293.297,-419.74"/>
</g>
<!-- testeth -->
<g id="node26" class="node"><title>testeth</title>
<polygon fill="none" stroke="black" stroke-width="2" points="301.005,-708 242.995,-708 242.995,-672 301.005,-672 301.005,-708"/>
<text text-anchor="middle" x="272" y="-687" font-family="Courier,monospace" font-size="10.00">testeth</text>
</g>
<!-- testeth&#45;&gt;testutils -->
<g id="edge47" class="edge"><title>testeth&#45;&gt;testutils</title>
<path fill="none" stroke="black" d="M272,-671.697C272,-663.983 272,-654.712 272,-646.112"/>
<polygon fill="black" stroke="black" points="275.5,-646.104 272,-636.104 268.5,-646.104 275.5,-646.104"/>
</g>
<!-- devcore&#45;&gt;base -->
<g id="edge48" class="edge"><title>devcore&#45;&gt;base</title>
<path fill="none" stroke="black" d="M240,-165.697C240,-157.983 240,-148.712 240,-140.112"/>
<polygon fill="black" stroke="black" points="243.5,-140.104 240,-130.104 236.5,-140.104 243.5,-140.104"/>
</g>
<!-- bench -->
<g id="node28" class="node"><title>bench</title>
<polygon fill="none" stroke="black" stroke-width="2" points="351,-346 297,-346 297,-310 351,-310 351,-346"/>
<text text-anchor="middle" x="324" y="-325" font-family="Courier,monospace" font-size="10.00">bench</text>
</g>
<!-- bench&#45;&gt;devcrypto -->
<g id="edge49" class="edge"><title>bench&#45;&gt;devcrypto</title>
<path fill="none" stroke="black" d="M324.742,-309.697C325.072,-301.983 325.469,-292.712 325.838,-284.112"/>
<polygon fill="black" stroke="black" points="329.335,-284.245 326.267,-274.104 322.342,-283.945 329.335,-284.245"/>
</g>
<!-- testweb3core -->
<g id="node29" class="node"><title>testweb3core</title>
<polygon fill="none" stroke="black" stroke-width="2" points="184.009,-490 95.9912,-490 95.9912,-454 184.009,-454 184.009,-490"/>
<text text-anchor="middle" x="140" y="-469" font-family="Courier,monospace" font-size="10.00">testweb3core</text>
</g>
<!-- testweb3core&#45;&gt;p2p -->
<g id="edge50" class="edge"><title>testweb3core&#45;&gt;p2p</title>
<path fill="none" stroke="black" d="M136.292,-453.697C134.639,-445.983 132.653,-436.712 130.81,-428.112"/>
<polygon fill="black" stroke="black" points="134.183,-427.149 128.665,-418.104 127.338,-428.616 134.183,-427.149"/>
</g>
<!-- eth -->
<g id="node30" class="node"><title>eth</title>
<polygon fill="none" stroke="black" stroke-width="2" points="269,-780 215,-780 215,-744 269,-744 269,-780"/>
<text text-anchor="middle" x="242" y="-759" font-family="Courier,monospace" font-size="10.00">eth</text>
</g>
<!-- eth&#45;&gt;web3jsonrpc -->
<g id="edge57" class="edge"><title>eth&#45;&gt;web3jsonrpc</title>
<path fill="none" stroke="black" d="M265.13,-743.785C269.31,-741.01 273.706,-738.298 278,-736 300.206,-724.114 326.249,-713.598 347.834,-705.728"/>
<polygon fill="black" stroke="black" points="349.172,-708.966 357.408,-702.302 346.814,-702.376 349.172,-708.966"/>
</g>
<!-- whisper&#45;&gt;p2p -->
<g id="edge58" class="edge"><title>whisper&#45;&gt;p2p</title>
<path fill="none" stroke="black" d="M185.69,-526.523C195.035,-506.352 206.815,-471.709 193,-446 188.59,-437.793 170.738,-426.129 154.433,-416.733"/>
<polygon fill="black" stroke="black" points="156.061,-413.633 145.629,-411.782 152.63,-419.735 156.061,-413.633"/>
</g>
<!-- testweb3 -->
<g id="node32" class="node"><title>testweb3</title>
<polygon fill="none" stroke="black" stroke-width="2" points="197.006,-780 132.994,-780 132.994,-744 197.006,-744 197.006,-780"/>
<text text-anchor="middle" x="165" y="-759" font-family="Courier,monospace" font-size="10.00">testweb3</text>
</g>
<!-- testweb3&#45;&gt;web3jsonrpc -->
<g id="edge59" class="edge"><title>testweb3&#45;&gt;web3jsonrpc</title>
<path fill="none" stroke="black" d="M190.384,-743.863C195.414,-740.949 200.762,-738.168 206,-736 230.166,-725.997 294.963,-711.276 341.271,-701.425"/>
<polygon fill="black" stroke="black" points="342.083,-704.831 351.143,-699.339 340.635,-697.982 342.083,-704.831"/>
</g>
<!-- AlethZero -->
<g id="node33" class="node"><title>AlethZero</title>
<polygon fill="none" stroke="black" stroke-width="2" points="756.007,-934 685.993,-934 685.993,-898 756.007,-898 756.007,-934"/>
<text text-anchor="middle" x="721" y="-913" font-family="Courier,monospace" font-size="10.00">AlethZero</text>
</g>
<!-- aleth -->
<g id="node34" class="node"><title>aleth</title>
<ellipse fill="none" stroke="black" cx="636" cy="-844" rx="27" ry="18"/>
<text text-anchor="middle" x="636" y="-841" font-family="Courier,monospace" font-size="10.00">aleth</text>
</g>
<!-- AlethZero&#45;&gt;aleth -->
<g id="edge7" class="edge"><title>AlethZero&#45;&gt;aleth</title>
<path fill="none" stroke="black" d="M699.989,-897.697C687.971,-887.8 672.842,-875.341 660.313,-865.022"/>
<polygon fill="black" stroke="black" points="662.458,-862.255 652.513,-858.599 658.008,-867.658 662.458,-862.255"/>
</g>
<!-- solidity -->
<g id="node38" class="node"><title>solidity</title>
<ellipse fill="none" stroke="black" cx="714" cy="-472" rx="36.433" ry="18"/>
<text text-anchor="middle" x="714" y="-469" font-family="Courier,monospace" font-size="10.00">solidity</text>
</g>
<!-- AlethZero&#45;&gt;solidity -->
<g id="edge8" class="edge"><title>AlethZero&#45;&gt;solidity</title>
<path fill="none" stroke="black" stroke-dasharray="1,5" d="M756.287,-900.198C803.13,-877.908 880,-830.976 880,-763 880,-763 880,-763 880,-617 880,-549.936 801.734,-507.077 752.684,-486.802"/>
<polygon fill="black" stroke="black" points="753.88,-483.511 743.295,-483.048 751.281,-490.01 753.88,-483.511"/>
</g>
<!-- aleth&#45;&gt;web3jsonrpc -->
<g id="edge10" class="edge"><title>aleth&#45;&gt;web3jsonrpc</title>
<path fill="none" stroke="black" d="M617.993,-830.261C588.589,-809.635 528.2,-768.012 475,-736 460.023,-726.988 443.121,-717.675 428.497,-709.876"/>
<polygon fill="black" stroke="black" points="429.734,-706.572 419.258,-704.988 426.461,-712.759 429.734,-706.572"/>
</g>
<!-- aleth&#45;&gt;natspec -->
<g id="edge11" class="edge"><title>aleth&#45;&gt;natspec</title>
<path fill="none" stroke="black" d="M609.071,-842.106C548.914,-839.734 405.561,-831.891 363,-810 352.715,-804.71 343.657,-795.899 336.54,-787.326"/>
<polygon fill="black" stroke="black" points="339.221,-785.071 330.335,-779.302 333.684,-789.354 339.221,-785.071"/>
</g>
<!-- Qt* -->
<g id="node46" class="node"><title>Qt*</title>
<ellipse fill="none" stroke="black" cx="825" cy="-690" rx="27" ry="18"/>
<text text-anchor="middle" x="825" y="-687" font-family="Courier,monospace" font-size="10.00">Qt*</text>
</g>
<!-- aleth&#45;&gt;Qt* -->
<g id="edge9" class="edge"><title>aleth&#45;&gt;Qt*</title>
<path fill="none" stroke="black" d="M662.817,-841.666C706.543,-838.901 790.312,-830.949 810,-810 832.913,-785.62 832.973,-744.967 829.841,-718.072"/>
<polygon fill="black" stroke="black" points="833.307,-717.585 828.47,-708.159 826.373,-718.544 833.307,-717.585"/>
</g>
<!-- AlethOne -->
<g id="node35" class="node"><title>AlethOne</title>
<polygon fill="none" stroke="black" stroke-width="2" points="668.006,-934 603.994,-934 603.994,-898 668.006,-898 668.006,-934"/>
<text text-anchor="middle" x="636" y="-913" font-family="Courier,monospace" font-size="10.00">AlethOne</text>
</g>
<!-- AlethOne&#45;&gt;aleth -->
<g id="edge12" class="edge"><title>AlethOne&#45;&gt;aleth</title>
<path fill="none" stroke="black" d="M636,-897.697C636,-889.983 636,-880.712 636,-872.112"/>
<polygon fill="black" stroke="black" points="639.5,-872.104 636,-862.104 632.5,-872.104 639.5,-872.104"/>
</g>
<!-- Mix -->
<g id="node36" class="node"><title>Mix</title>
<ellipse fill="none" stroke="black" cx="770" cy="-762" rx="27" ry="18"/>
<text text-anchor="middle" x="770" y="-759" font-family="Courier,monospace" font-size="10.00">Mix</text>
</g>
<!-- Mix&#45;&gt;web3jsonrpc -->
<g id="edge52" class="edge"><title>Mix&#45;&gt;web3jsonrpc</title>
<path fill="none" stroke="black" d="M744.316,-756.244C682.663,-744.827 525.354,-715.695 443.4,-700.518"/>
<polygon fill="black" stroke="black" points="444.021,-697.074 433.551,-698.695 442.746,-703.957 444.021,-697.074"/>
</g>
<!-- Mix&#45;&gt;solidity -->
<g id="edge53" class="edge"><title>Mix&#45;&gt;solidity</title>
<path fill="none" stroke="black" stroke-dasharray="1,5" d="M773.667,-743.835C779.957,-713.417 792.556,-647.98 797,-592 799.321,-562.759 811.095,-551.725 797,-526 787.365,-508.415 769.138,-495.819 752.213,-487.331"/>
<polygon fill="black" stroke="black" points="753.549,-484.092 743.008,-483.033 750.588,-490.435 753.549,-484.092"/>
</g>
<!-- Mix&#45;&gt;Qt* -->
<g id="edge51" class="edge"><title>Mix&#45;&gt;Qt*</title>
<path fill="none" stroke="black" d="M781.934,-745.811C789.214,-736.546 798.663,-724.52 806.854,-714.094"/>
<polygon fill="black" stroke="black" points="809.663,-716.185 813.089,-706.159 804.159,-711.86 809.663,-716.185"/>
</g>
<!-- soljson -->
<g id="node37" class="node"><title>soljson</title>
<ellipse fill="none" stroke="black" cx="755" cy="-544" rx="33.2355" ry="18"/>
<text text-anchor="middle" x="755" y="-541" font-family="Courier,monospace" font-size="10.00">soljson</text>
</g>
<!-- soljson&#45;&gt;solidity -->
<g id="edge1" class="edge"><title>soljson&#45;&gt;solidity</title>
<path fill="none" stroke="black" d="M745.284,-526.411C740.382,-518.042 734.33,-507.71 728.859,-498.37"/>
<polygon fill="black" stroke="black" points="731.721,-496.33 723.647,-489.47 725.681,-499.868 731.721,-496.33"/>
</g>
<!-- solidity&#45;&gt;evmasm -->
<g id="edge21" class="edge"><title>solidity&#45;&gt;evmasm</title>
<path fill="none" stroke="black" d="M693.794,-456.569C664.359,-436.331 607.267,-399.984 553,-382 440.174,-344.61 402.456,-378.052 288,-346 285.72,-345.361 283.399,-344.616 281.083,-343.801"/>
<polygon fill="black" stroke="black" points="282.3,-340.519 271.712,-340.15 279.759,-347.041 282.3,-340.519"/>
</g>
<!-- solc -->
<g id="node39" class="node"><title>solc</title>
<polygon fill="none" stroke="black" stroke-width="2" points="704,-562 650,-562 650,-526 704,-526 704,-562"/>
<text text-anchor="middle" x="677" y="-541" font-family="Courier,monospace" font-size="10.00">solc</text>
</g>
<!-- solc&#45;&gt;solidity -->
<g id="edge54" class="edge"><title>solc&#45;&gt;solidity</title>
<path fill="none" stroke="black" d="M686.146,-525.697C690.466,-517.523 695.71,-507.603 700.477,-498.584"/>
<polygon fill="black" stroke="black" points="703.635,-500.099 705.214,-489.622 697.446,-496.828 703.635,-500.099"/>
</g>
<!-- soltest -->
<g id="node40" class="node"><title>soltest</title>
<polygon fill="none" stroke="black" stroke-width="2" points="632.005,-562 573.995,-562 573.995,-526 632.005,-526 632.005,-562"/>
<text text-anchor="middle" x="603" y="-541" font-family="Courier,monospace" font-size="10.00">soltest</text>
</g>
<!-- soltest&#45;&gt;ethereum -->
<g id="edge55" class="edge"><title>soltest&#45;&gt;ethereum</title>
<path fill="none" stroke="black" d="M573.927,-529.309C570.625,-528.06 567.27,-526.921 564,-526 452.136,-494.488 417.717,-518.308 305,-490 302.04,-489.257 299.007,-488.388 295.98,-487.444"/>
<polygon fill="black" stroke="black" points="297.02,-484.101 286.426,-484.233 294.789,-490.737 297.02,-484.101"/>
</g>
<!-- soltest&#45;&gt;solidity -->
<g id="edge56" class="edge"><title>soltest&#45;&gt;solidity</title>
<path fill="none" stroke="black" d="M630.154,-525.876C646.292,-515.699 666.8,-502.766 683.495,-492.237"/>
<polygon fill="black" stroke="black" points="685.734,-494.963 692.325,-486.669 682,-489.042 685.734,-494.963"/>
</g>
</g>
</svg>
